solid OpenSCAD_Model
  facet normal 0 0 1
    outer loop
      vertex -1 10 13.8
      vertex -1.5 9.25 13.8
      vertex -1 9.25 13.8
    endloop
  endfacet
  facet normal -0 0 1
    outer loop
      vertex -2.25 10 13.8
      vertex -1.5 9.25 13.8
      vertex -1 10 13.8
    endloop
  endfacet
  facet normal 0 0 1
    outer loop
      vertex -1.5 9.25 13.8
      vertex -2.25 10 13.8
      vertex -2.25 8.81699 13.8
    endloop
  endfacet
  facet normal 0 0 -1
    outer loop
      vertex -1.4537 7.84334 0
      vertex -2.14781 8.64534 0
      vertex -1.36861 9.02329 0
    endloop
  endfacet
  facet normal 0 0 -1
    outer loop
      vertex -3.56282 7.99544 0
      vertex -2.14781 8.64534 0
      vertex -1.4537 7.84334 0
    endloop
  endfacet
  facet normal -0 0 -1
    outer loop
      vertex -2.79905 8.69231 0
      vertex -3.88333 8.68088 0
      vertex -2.93432 8.99612 0
    endloop
  endfacet
  facet normal 0 0 -1
    outer loop
      vertex -3.88333 8.68088 0
      vertex -2.79905 8.69231 0
      vertex -3.60426 8.05408 0
    endloop
  endfacet
  facet normal 0 0 -1
    outer loop
      vertex -3.60426 8.05408 0
      vertex -2.79905 8.69231 0
      vertex -3.56282 7.99544 0
    endloop
  endfacet
  facet normal -0 0 -1
    outer loop
      vertex -2.14781 8.64534 0
      vertex -3.56282 7.99544 0
      vertex -2.79905 8.69231 0
    endloop
  endfacet
  facet normal 0 0 -1
    outer loop
      vertex 6.44166 9.57994 0
      vertex 3.44943 9.79572 0
      vertex 3.53574 10.9926 0
    endloop
  endfacet
  facet normal 0 0 -1
    outer loop
      vertex 14.8 6 0
      vertex 12.3 8.4 0
      vertex 14.8 7 0
    endloop
  endfacet
  facet normal 0 0 -1
    outer loop
      vertex 8.2576 6 0
      vertex 12.3 8.4 0
      vertex 14.8 6 0
    endloop
  endfacet
  facet normal 0 0 -1
    outer loop
      vertex 8.08371 6.32132 0
      vertex 12.3 8.4 0
      vertex 8.2576 6 0
    endloop
  endfacet
  facet normal 0 0 -1
    outer loop
      vertex 7.72042 6.65575 0
      vertex 12.3 8.4 0
      vertex 8.08371 6.32132 0
    endloop
  endfacet
  facet normal 0 0 -1
    outer loop
      vertex 7.26823 6.8541 0
      vertex 12.3 8.4 0
      vertex 7.72042 6.65575 0
    endloop
  endfacet
  facet normal 0 0 -1
    outer loop
      vertex 6.77613 6.89488 0
      vertex 12.3 8.4 0
      vertex 7.26823 6.8541 0
    endloop
  endfacet
  facet normal 0 0 -1
    outer loop
      vertex 1.5 8.4 0
      vertex 6.77613 6.89488 0
      vertex 6.29746 6.77366 0
    endloop
  endfacet
  facet normal 0 0 -1
    outer loop
      vertex 6.77613 6.89488 0
      vertex 1.5 8.4 0
      vertex 12.3 8.4 0
    endloop
  endfacet
  facet normal 0 0 -1
    outer loop
      vertex 5.88408 6.50359 0
      vertex 1.5 8.4 0
      vertex 6.29746 6.77366 0
    endloop
  endfacet
  facet normal 0 0 -1
    outer loop
      vertex 5.58079 6.11392 0
      vertex 1.5 8.4 0
      vertex 5.88408 6.50359 0
    endloop
  endfacet
  facet normal 0 0 -1
    outer loop
      vertex 5.54168 6 0
      vertex 1.5 8.4 0
      vertex 5.58079 6.11392 0
    endloop
  endfacet
  facet normal 0 0 -1
    outer loop
      vertex -0.548037 8.23773 0
      vertex 1.5 8.4 0
      vertex -0.5 7.75 0
    endloop
  endfacet
  facet normal 0 0 -1
    outer loop
      vertex -1 6 0
      vertex 1.5 8.4 0
      vertex 5.54168 6 0
    endloop
  endfacet
  facet normal 0 0 -1
    outer loop
      vertex 1.5 8.4 0
      vertex -0.548037 7.26227 0
      vertex -0.5 7.75 0
    endloop
  endfacet
  facet normal 0 0 -1
    outer loop
      vertex 1.5 8.4 0
      vertex -0.690301 6.79329 0
      vertex -0.548037 7.26227 0
    endloop
  endfacet
  facet normal 0 0 -1
    outer loop
      vertex 1.5 8.4 0
      vertex -1 6 0
      vertex -0.690301 6.79329 0
    endloop
  endfacet
  facet normal 0 0 -1
    outer loop
      vertex -0.690301 6.79329 0
      vertex -1 6 0
      vertex -0.921326 6.36107 0
    endloop
  endfacet
  facet normal 0 0 -1
    outer loop
      vertex -0.921326 6.36107 0
      vertex -1 6 0
      vertex -1 6.26521 0
    endloop
  endfacet
  facet normal 0 0 -1
    outer loop
      vertex 19.3 7 0
      vertex 19.2878 10 0
      vertex 19.3 10 0
    endloop
  endfacet
  facet normal 0 0 -1
    outer loop
      vertex 17.3 9 0
      vertex 19.2878 10 0
      vertex 19.3 7 0
    endloop
  endfacet
  facet normal 0 0 -1
    outer loop
      vertex 17.3 10 0
      vertex 19.2878 10 0
      vertex 17.3 9 0
    endloop
  endfacet
  facet normal 0 0 -1
    outer loop
      vertex 19.2878 10 0
      vertex 17.3 10 0
      vertex 19.2713 10.3377 0
    endloop
  endfacet
  facet normal -0 0 -1
    outer loop
      vertex 19.2713 10.3377 0
      vertex 17.3 10 0
      vertex 19.1332 10.7997 0
    endloop
  endfacet
  facet normal -0 0 -1
    outer loop
      vertex 19.1332 10.7997 0
      vertex 17.3 10 0
      vertex 18.8885 11.2151 0
    endloop
  endfacet
  facet normal -0 0 -1
    outer loop
      vertex 18.5516 11.56 0
      vertex 17.3 10 0
      vertex 18.1419 11.8142 0
    endloop
  endfacet
  facet normal -0 0 -1
    outer loop
      vertex 18.1419 11.8142 0
      vertex 17.3 10 0
      vertex 17.6833 11.9629 0
    endloop
  endfacet
  facet normal -0 0 -1
    outer loop
      vertex 18.8885 11.2151 0
      vertex 17.3 10 0
      vertex 18.5516 11.56 0
    endloop
  endfacet
  facet normal 0 0 -1
    outer loop
      vertex 14.8 7 0
      vertex 17.3 9 0
      vertex 19.3 7 0
    endloop
  endfacet
  facet normal 0 0 -1
    outer loop
      vertex 12.3 9 0
      vertex 14.8 7 0
      vertex 12.3 8.4 0
    endloop
  endfacet
  facet normal 0 0 -1
    outer loop
      vertex 14.8 7 0
      vertex 12.3 9 0
      vertex 17.3 9 0
    endloop
  endfacet
  facet normal -0 0 -1
    outer loop
      vertex 17.6833 11.9629 0
      vertex 17.3 10 0
      vertex 17.4428 11.9803 0
    endloop
  endfacet
  facet normal 0 0 -1
    outer loop
      vertex 16.5057 11.6375 0
      vertex 17.4428 11.9803 0
      vertex 17.3 10 0
    endloop
  endfacet
  facet normal 0 0 -1
    outer loop
      vertex 16.5057 11.6375 0
      vertex 17.4439 11.9948 0
      vertex 17.4428 11.9803 0
    endloop
  endfacet
  facet normal 0 0 -1
    outer loop
      vertex 14.6904 11.7684 0
      vertex 17.4439 11.9948 0
      vertex 16.5057 11.6375 0
    endloop
  endfacet
  facet normal 0 0 -1
    outer loop
      vertex 6.52797 10.7768 0
      vertex 14.6904 11.7684 0
      vertex 13.6694 10.2618 0
    endloop
  endfacet
  facet normal 0 0 -1
    outer loop
      vertex 3.53574 10.9926 0
      vertex 6.52797 10.7768 0
      vertex 6.44166 9.57994 0
    endloop
  endfacet
  facet normal 0 0 -1
    outer loop
      vertex 3.53574 10.9926 0
      vertex 14.6904 11.7684 0
      vertex 6.52797 10.7768 0
    endloop
  endfacet
  facet normal 0 0 -1
    outer loop
      vertex -6.2945 13.7067 0
      vertex 14.6904 11.7684 0
      vertex 3.53574 10.9926 0
    endloop
  endfacet
  facet normal 0 0 -1
    outer loop
      vertex -6.2945 13.7067 0
      vertex 3.53574 10.9926 0
      vertex -2.43626 11.4233 0
    endloop
  endfacet
  facet normal -0 0 -1
    outer loop
      vertex -2.93432 8.99612 0
      vertex -3.88333 8.68088 0
      vertex -3.04248 9.47412 0
    endloop
  endfacet
  facet normal 0 0 -1
    outer loop
      vertex -4.03476 9.35008 0
      vertex -3.04248 9.47412 0
      vertex -3.88333 8.68088 0
    endloop
  endfacet
  facet normal 0 0 -1
    outer loop
      vertex -3.69065 11.3527 0
      vertex -2.79669 10.9046 0
      vertex -2.97232 10.447 0
    endloop
  endfacet
  facet normal 0 0 -1
    outer loop
      vertex -3.59347 11.5067 0
      vertex -2.53517 11.3191 0
      vertex -2.79669 10.9046 0
    endloop
  endfacet
  facet normal 0 0 -1
    outer loop
      vertex -3.59347 11.5067 0
      vertex -2.43626 11.4233 0
      vertex -2.53517 11.3191 0
    endloop
  endfacet
  facet normal 0 0 -1
    outer loop
      vertex -6.2945 13.7067 0
      vertex -2.43626 11.4233 0
      vertex -3.59347 11.5067 0
    endloop
  endfacet
  facet normal 0 0 -1
    outer loop
      vertex 14.6904 11.7684 0
      vertex -6.2945 13.7067 0
      vertex 17.4439 11.9948 0
    endloop
  endfacet
  facet normal 0 0 -1
    outer loop
      vertex -3.59347 11.5067 0
      vertex -6.29607 13.6848 0
      vertex -6.2945 13.7067 0
    endloop
  endfacet
  facet normal 0 0 -1
    outer loop
      vertex -3.59347 11.5067 0
      vertex -6.43678 11.7338 0
      vertex -6.29607 13.6848 0
    endloop
  endfacet
  facet normal 0 -0 -1
    outer loop
      vertex -6.43678 11.7338 0
      vertex -3.59347 11.5067 0
      vertex -6.43835 11.7119 0
    endloop
  endfacet
  facet normal 0 0 -1
    outer loop
      vertex -0.690301 8.70671 0
      vertex 1.5 8.4 0
      vertex -0.548037 8.23773 0
    endloop
  endfacet
  facet normal 0 0 -1
    outer loop
      vertex 1.5 8.4 0
      vertex -0.690301 8.70671 0
      vertex 1.5 10 0
    endloop
  endfacet
  facet normal 0 0 -1
    outer loop
      vertex -0.921326 9.13893 0
      vertex 1.5 10 0
      vertex -0.690301 8.70671 0
    endloop
  endfacet
  facet normal 0 0 -1
    outer loop
      vertex -1 9.25 0
      vertex -0.921326 9.13893 0
      vertex -1 9.23479 0
    endloop
  endfacet
  facet normal 0 0 -1
    outer loop
      vertex -0.921326 9.13893 0
      vertex -1 9.25 0
      vertex 1.5 10 0
    endloop
  endfacet
  facet normal 0 0 -1
    outer loop
      vertex -2.25 10 0
      vertex -1 9.25 0
      vertex -1.5 9.25 0
    endloop
  endfacet
  facet normal 0 0 -1
    outer loop
      vertex -1 9.25 0
      vertex -2.25 10 0
      vertex 1.5 10 0
    endloop
  endfacet
  facet normal 0 0 -1
    outer loop
      vertex -2.25 10 0
      vertex -1.5 9.25 0
      vertex -2.25 8.81699 0
    endloop
  endfacet
  facet normal -0 0 -1
    outer loop
      vertex -3.04248 9.47412 0
      vertex -4.03476 9.35008 0
      vertex -3.05531 9.96404 0
    endloop
  endfacet
  facet normal 0 0 -1
    outer loop
      vertex -4.05272 10.036 0
      vertex -3.05531 9.96404 0
      vertex -4.03476 9.35008 0
    endloop
  endfacet
  facet normal 0 0 -1
    outer loop
      vertex -3.05531 9.96404 0
      vertex -4.05272 10.036 0
      vertex -2.97232 10.447 0
    endloop
  endfacet
  facet normal 0 0 -1
    outer loop
      vertex -2.79669 10.9046 0
      vertex -3.69065 11.3527 0
      vertex -3.59347 11.5067 0
    endloop
  endfacet
  facet normal 0 -0 -1
    outer loop
      vertex -3.69065 11.3527 0
      vertex -2.97232 10.447 0
      vertex -3.93653 10.7122 0
    endloop
  endfacet
  facet normal -0 0 -1
    outer loop
      vertex -2.97232 10.447 0
      vertex -4.05272 10.036 0
      vertex -3.93653 10.7122 0
    endloop
  endfacet
  facet normal 0 0 -1
    outer loop
      vertex -7.31764 13.0178 0
      vertex -6.29607 13.6848 0
      vertex -6.43678 11.7338 0
    endloop
  endfacet
  facet normal 0 0 -1
    outer loop
      vertex -7.16069 12.1017 0
      vertex -6.43678 11.7338 0
      vertex -6.78736 11.8022 0
    endloop
  endfacet
  facet normal 0 0 -1
    outer loop
      vertex -6.29607 13.6848 0
      vertex -7.0653 13.4246 0
      vertex -6.65286 13.6674 0
    endloop
  endfacet
  facet normal 0 0 -1
    outer loop
      vertex -7.35206 12.5405 0
      vertex -6.43678 11.7338 0
      vertex -7.16069 12.1017 0
    endloop
  endfacet
  facet normal 0 0 -1
    outer loop
      vertex -6.29607 13.6848 0
      vertex -7.31764 13.0178 0
      vertex -7.0653 13.4246 0
    endloop
  endfacet
  facet normal 0 0 -1
    outer loop
      vertex -6.43678 11.7338 0
      vertex -7.35206 12.5405 0
      vertex -7.31764 13.0178 0
    endloop
  endfacet
  facet normal -1 0 0
    outer loop
      vertex -2.25 8.81699 0
      vertex -2.25 10 13.8
      vertex -2.25 10 0
    endloop
  endfacet
  facet normal -1 -0 0
    outer loop
      vertex -2.25 10 13.8
      vertex -2.25 8.81699 0
      vertex -2.25 8.81699 13.8
    endloop
  endfacet
  facet normal 0 1 -0
    outer loop
      vertex 1.5 10 12.9
      vertex -1 10 14.8
      vertex 3.4 10 14.8
    endloop
  endfacet
  facet normal 0 1 0
    outer loop
      vertex -1 10 14.8
      vertex 1.5 10 12.9
      vertex -1 10 13.8
    endloop
  endfacet
  facet normal 0 1 0
    outer loop
      vertex 1.5 10 12.9
      vertex -2.25 10 13.8
      vertex -1 10 13.8
    endloop
  endfacet
  facet normal 0 1 0
    outer loop
      vertex -2.25 10 0
      vertex 1.5 10 12.9
      vertex 1.5 10 0
    endloop
  endfacet
  facet normal 0 1 0
    outer loop
      vertex 1.5 10 12.9
      vertex -2.25 10 0
      vertex -2.25 10 13.8
    endloop
  endfacet
  facet normal 0 1 -0
    outer loop
      vertex 19.3 10 0
      vertex 19.2878 10 13.8
      vertex 19.3 10 13.8
    endloop
  endfacet
  facet normal 0 1 0
    outer loop
      vertex 19.2878 10 13.8
      vertex 19.3 10 0
      vertex 19.2878 10 0
    endloop
  endfacet
  facet normal 0 1 -0
    outer loop
      vertex 12.3 10 12.9
      vertex 10.4 10 14.8
      vertex 12.3 10 14.8
    endloop
  endfacet
  facet normal 0 -1 0
    outer loop
      vertex -1.5 9.25 0
      vertex -1 9.25 13.8
      vertex -1.5 9.25 13.8
    endloop
  endfacet
  facet normal 0 -1 -0
    outer loop
      vertex -1 9.25 13.8
      vertex -1.5 9.25 0
      vertex -1 9.25 0
    endloop
  endfacet
  facet normal 0.499998 -0.866027 0
    outer loop
      vertex -2.25 8.81699 0
      vertex -1.5 9.25 13.8
      vertex -2.25 8.81699 13.8
    endloop
  endfacet
  facet normal 0.499998 -0.866027 0
    outer loop
      vertex -1.5 9.25 13.8
      vertex -2.25 8.81699 0
      vertex -1.5 9.25 0
    endloop
  endfacet
  facet normal -1 0 0
    outer loop
      vertex 3 0 4.9
      vertex 3 2 5.9
      vertex 3 2 4.9
    endloop
  endfacet
  facet normal -1 -0 0
    outer loop
      vertex 3 2 5.9
      vertex 3 0 4.9
      vertex 3 0 5.9
    endloop
  endfacet
  facet normal -0 0 1
    outer loop
      vertex 0.5 2 4.9
      vertex 3 0 4.9
      vertex 3 2 4.9
    endloop
  endfacet
  facet normal 0 0 1
    outer loop
      vertex 3 0 4.9
      vertex 0.5 2 4.9
      vertex 0.5 0 4.9
    endloop
  endfacet
  facet normal 1 0 0
    outer loop
      vertex 0.5 8.8 11.9
      vertex 0.5 2 4.9
      vertex 0.5 8.8 3.9
    endloop
  endfacet
  facet normal 1 -0 0
    outer loop
      vertex 0.5 0 11.9
      vertex 0.5 2 4.9
      vertex 0.5 8.8 11.9
    endloop
  endfacet
  facet normal 1 0 0
    outer loop
      vertex 0.5 2 4.9
      vertex 0.5 0 11.9
      vertex 0.5 0 4.9
    endloop
  endfacet
  facet normal 1 0 0
    outer loop
      vertex 0.5 8.8 3.9
      vertex 0.5 2 4.9
      vertex 0.5 2 3.9
    endloop
  endfacet
  facet normal -1 0 0
    outer loop
      vertex 13.3 2 4.9
      vertex 13.3 8.8 3.9
      vertex 13.3 2 3.9
    endloop
  endfacet
  facet normal -1 0 0
    outer loop
      vertex 13.3 8.8 3.9
      vertex 13.3 2 4.9
      vertex 13.3 8.8 11.9
    endloop
  endfacet
  facet normal -1 0 0
    outer loop
      vertex 13.3 0 11.9
      vertex 13.3 2 4.9
      vertex 13.3 0 4.9
    endloop
  endfacet
  facet normal -1 0 0
    outer loop
      vertex 13.3 2 4.9
      vertex 13.3 0 11.9
      vertex 13.3 8.8 11.9
    endloop
  endfacet
  facet normal -0 0 1
    outer loop
      vertex 10.8 2 4.9
      vertex 13.3 0 4.9
      vertex 13.3 2 4.9
    endloop
  endfacet
  facet normal 0 0 1
    outer loop
      vertex 13.3 0 4.9
      vertex 10.8 2 4.9
      vertex 10.8 0 4.9
    endloop
  endfacet
  facet normal 1 -0 0
    outer loop
      vertex 10.8 0 5.9
      vertex 10.8 2 4.9
      vertex 10.8 2 5.9
    endloop
  endfacet
  facet normal 1 0 0
    outer loop
      vertex 10.8 2 4.9
      vertex 10.8 0 5.9
      vertex 10.8 0 4.9
    endloop
  endfacet
  facet normal -1 0 0
    outer loop
      vertex 8.15 0 4.9
      vertex 8.15 2 5.9
      vertex 8.15 2 4.9
    endloop
  endfacet
  facet normal -1 -0 0
    outer loop
      vertex 8.15 2 5.9
      vertex 8.15 0 4.9
      vertex 8.15 0 5.9
    endloop
  endfacet
  facet normal -0 0 1
    outer loop
      vertex 5.65 2 4.9
      vertex 8.15 0 4.9
      vertex 8.15 2 4.9
    endloop
  endfacet
  facet normal 0 0 1
    outer loop
      vertex 8.15 0 4.9
      vertex 5.65 2 4.9
      vertex 5.65 0 4.9
    endloop
  endfacet
  facet normal 1 -0 0
    outer loop
      vertex 5.65 0 5.9
      vertex 5.65 2 4.9
      vertex 5.65 2 5.9
    endloop
  endfacet
  facet normal 1 0 0
    outer loop
      vertex 5.65 2 4.9
      vertex 5.65 0 5.9
      vertex 5.65 0 4.9
    endloop
  endfacet
  facet normal -0 0 1
    outer loop
      vertex 3 2 5.9
      vertex 5.65 0 5.9
      vertex 5.65 2 5.9
    endloop
  endfacet
  facet normal 0 0 1
    outer loop
      vertex 5.65 0 5.9
      vertex 3 2 5.9
      vertex 3 0 5.9
    endloop
  endfacet
  facet normal -0 0 1
    outer loop
      vertex 8.15 2 5.9
      vertex 10.8 0 5.9
      vertex 10.8 2 5.9
    endloop
  endfacet
  facet normal 0 0 1
    outer loop
      vertex 10.8 0 5.9
      vertex 8.15 2 5.9
      vertex 8.15 0 5.9
    endloop
  endfacet
  facet normal 0 0 1
    outer loop
      vertex 1.5 8.8 3.9
      vertex 0.5 8.8 3.9
      vertex 1.5 8.4 3.9
    endloop
  endfacet
  facet normal 0 0 1
    outer loop
      vertex 12.3 8.4 3.9
      vertex 8.31873 5.88705 3.9
      vertex 8.4 5.4 3.9
    endloop
  endfacet
  facet normal 0 0 1
    outer loop
      vertex 12.3 8.4 3.9
      vertex 8.08371 6.32132 3.9
      vertex 8.31873 5.88705 3.9
    endloop
  endfacet
  facet normal 0 0 1
    outer loop
      vertex 12.3 8.4 3.9
      vertex 7.72042 6.65575 3.9
      vertex 8.08371 6.32132 3.9
    endloop
  endfacet
  facet normal 0 0 1
    outer loop
      vertex 12.3 8.4 3.9
      vertex 7.26823 6.8541 3.9
      vertex 7.72042 6.65575 3.9
    endloop
  endfacet
  facet normal 0 0 1
    outer loop
      vertex 12.3 8.4 3.9
      vertex 6.77613 6.89488 3.9
      vertex 7.26823 6.8541 3.9
    endloop
  endfacet
  facet normal -0 0 1
    outer loop
      vertex 1.5 8.4 3.9
      vertex 6.77613 6.89488 3.9
      vertex 12.3 8.4 3.9
    endloop
  endfacet
  facet normal 0 0 1
    outer loop
      vertex 5.42046 5.64689 3.9
      vertex 1.5 8.4 3.9
      vertex 5.42046 5.15311 3.9
    endloop
  endfacet
  facet normal 0 0 1
    outer loop
      vertex 5.58079 6.11392 3.9
      vertex 1.5 8.4 3.9
      vertex 5.42046 5.64689 3.9
    endloop
  endfacet
  facet normal 0 0 1
    outer loop
      vertex 5.88408 6.50359 3.9
      vertex 1.5 8.4 3.9
      vertex 5.58079 6.11392 3.9
    endloop
  endfacet
  facet normal 0 0 1
    outer loop
      vertex 6.29746 6.77366 3.9
      vertex 1.5 8.4 3.9
      vertex 5.88408 6.50359 3.9
    endloop
  endfacet
  facet normal 0 0 1
    outer loop
      vertex 6.77613 6.89488 3.9
      vertex 1.5 8.4 3.9
      vertex 6.29746 6.77366 3.9
    endloop
  endfacet
  facet normal 0 0 1
    outer loop
      vertex 12.3 8.4 3.9
      vertex 13.3 8.8 3.9
      vertex 12.3 8.8 3.9
    endloop
  endfacet
  facet normal 0 0 1
    outer loop
      vertex 13.3 8.8 3.9
      vertex 12.3 8.4 3.9
      vertex 13.3 2 3.9
    endloop
  endfacet
  facet normal -0 0 1
    outer loop
      vertex 8.4 5.4 3.9
      vertex 13.3 2 3.9
      vertex 12.3 8.4 3.9
    endloop
  endfacet
  facet normal -0 0 1
    outer loop
      vertex 8.31873 4.91295 3.9
      vertex 13.3 2 3.9
      vertex 8.4 5.4 3.9
    endloop
  endfacet
  facet normal -0 0 1
    outer loop
      vertex 8.08371 4.47868 3.9
      vertex 13.3 2 3.9
      vertex 8.31873 4.91295 3.9
    endloop
  endfacet
  facet normal -0 0 1
    outer loop
      vertex 7.72042 4.14425 3.9
      vertex 13.3 2 3.9
      vertex 8.08371 4.47868 3.9
    endloop
  endfacet
  facet normal -0 0 1
    outer loop
      vertex 7.26823 3.9459 3.9
      vertex 13.3 2 3.9
      vertex 7.72042 4.14425 3.9
    endloop
  endfacet
  facet normal -0 0 1
    outer loop
      vertex 6.77613 3.90512 3.9
      vertex 13.3 2 3.9
      vertex 7.26823 3.9459 3.9
    endloop
  endfacet
  facet normal 0 0 1
    outer loop
      vertex 0.5 2 3.9
      vertex 6.77613 3.90512 3.9
      vertex 6.29746 4.02634 3.9
    endloop
  endfacet
  facet normal 0 0 1
    outer loop
      vertex 0.5 2 3.9
      vertex 5.42046 5.15311 3.9
      vertex 1.5 8.4 3.9
    endloop
  endfacet
  facet normal 0 0 1
    outer loop
      vertex 5.42046 5.15311 3.9
      vertex 0.5 2 3.9
      vertex 5.58079 4.68608 3.9
    endloop
  endfacet
  facet normal 0 0 1
    outer loop
      vertex 0.5 2 3.9
      vertex 1.5 8.4 3.9
      vertex 0.5 8.8 3.9
    endloop
  endfacet
  facet normal 0 0 1
    outer loop
      vertex 6.77613 3.90512 3.9
      vertex 0.5 2 3.9
      vertex 13.3 2 3.9
    endloop
  endfacet
  facet normal 0 0 1
    outer loop
      vertex 5.88408 4.29641 3.9
      vertex 0.5 2 3.9
      vertex 6.29746 4.02634 3.9
    endloop
  endfacet
  facet normal 0 0 1
    outer loop
      vertex 5.58079 4.68608 3.9
      vertex 0.5 2 3.9
      vertex 5.88408 4.29641 3.9
    endloop
  endfacet
  facet normal 0 -1 0
    outer loop
      vertex 1.5 8.8 3.9
      vertex 0.5 8.8 11.9
      vertex 0.5 8.8 3.9
    endloop
  endfacet
  facet normal 0 -1 0
    outer loop
      vertex 0.5 8.8 11.9
      vertex 1.5 8.8 3.9
      vertex 1.5 8.8 12.9
    endloop
  endfacet
  facet normal 0 -1 0
    outer loop
      vertex 12.3 8.8 3.9
      vertex 13.3 8.8 11.9
      vertex 12.3 8.8 12.9
    endloop
  endfacet
  facet normal 0 -1 -0
    outer loop
      vertex 13.3 8.8 11.9
      vertex 12.3 8.8 3.9
      vertex 13.3 8.8 3.9
    endloop
  endfacet
  facet normal 0 1 -0
    outer loop
      vertex 13.3 2 3.9
      vertex 10.8 2 4.9
      vertex 13.3 2 4.9
    endloop
  endfacet
  facet normal 0 1 0
    outer loop
      vertex 10.8 2 4.9
      vertex 13.3 2 3.9
      vertex 8.15 2 4.9
    endloop
  endfacet
  facet normal 0 1 0
    outer loop
      vertex 8.15 2 4.9
      vertex 13.3 2 3.9
      vertex 5.65 2 4.9
    endloop
  endfacet
  facet normal 0 1 0
    outer loop
      vertex 0.5 2 3.9
      vertex 5.65 2 4.9
      vertex 13.3 2 3.9
    endloop
  endfacet
  facet normal 0 1 0
    outer loop
      vertex 5.65 2 4.9
      vertex 0.5 2 3.9
      vertex 3 2 4.9
    endloop
  endfacet
  facet normal 0 1 0
    outer loop
      vertex 3 2 4.9
      vertex 0.5 2 3.9
      vertex 0.5 2 4.9
    endloop
  endfacet
  facet normal 0 1 -0
    outer loop
      vertex 10.8 2 4.9
      vertex 8.15 2 5.9
      vertex 10.8 2 5.9
    endloop
  endfacet
  facet normal 0 1 0
    outer loop
      vertex 8.15 2 5.9
      vertex 10.8 2 4.9
      vertex 8.15 2 4.9
    endloop
  endfacet
  facet normal 0 1 -0
    outer loop
      vertex 5.65 2 4.9
      vertex 3 2 5.9
      vertex 5.65 2 5.9
    endloop
  endfacet
  facet normal 0 1 0
    outer loop
      vertex 3 2 5.9
      vertex 5.65 2 4.9
      vertex 3 2 4.9
    endloop
  endfacet
  facet normal 1 -0 0
    outer loop
      vertex 12.3 9 14.8
      vertex 12.3 10 12.9
      vertex 12.3 10 14.8
    endloop
  endfacet
  facet normal 1 0 0
    outer loop
      vertex 12.3 10 12.9
      vertex 12.3 9 14.8
      vertex 12.3 9 12.9
    endloop
  endfacet
  facet normal -1 0 0
    outer loop
      vertex 12.3 9 0
      vertex 12.3 8.8 3.9
      vertex 12.3 9 12.9
    endloop
  endfacet
  facet normal -1 0 0
    outer loop
      vertex 12.3 8.4 0
      vertex 12.3 8.8 3.9
      vertex 12.3 9 0
    endloop
  endfacet
  facet normal -1 -0 0
    outer loop
      vertex 12.3 8.8 3.9
      vertex 12.3 8.4 0
      vertex 12.3 8.4 3.9
    endloop
  endfacet
  facet normal -1 -0 0
    outer loop
      vertex 12.3 9 12.9
      vertex 12.3 8.8 3.9
      vertex 12.3 8.8 12.9
    endloop
  endfacet
  facet normal 1 0 0
    outer loop
      vertex 1.5 8.8 3.9
      vertex 1.5 10 12.9
      vertex 1.5 8.8 12.9
    endloop
  endfacet
  facet normal 1 0 0
    outer loop
      vertex 1.5 10 12.9
      vertex 1.5 8.8 3.9
      vertex 1.5 10 0
    endloop
  endfacet
  facet normal 1 0 0
    outer loop
      vertex 1.5 8.4 0
      vertex 1.5 8.8 3.9
      vertex 1.5 8.4 3.9
    endloop
  endfacet
  facet normal 1 0 0
    outer loop
      vertex 1.5 8.8 3.9
      vertex 1.5 8.4 0
      vertex 1.5 10 0
    endloop
  endfacet
  facet normal 0 1 -0
    outer loop
      vertex 12.3 8.4 0
      vertex 1.5 8.4 3.9
      vertex 12.3 8.4 3.9
    endloop
  endfacet
  facet normal 0 1 0
    outer loop
      vertex 1.5 8.4 3.9
      vertex 12.3 8.4 0
      vertex 1.5 8.4 0
    endloop
  endfacet
  facet normal -0.401697 -0.915773 0
    outer loop
      vertex 7.26823 6.8541 0
      vertex 7.72042 6.65575 3.9
      vertex 7.26823 6.8541 3.9
    endloop
  endfacet
  facet normal -0.401697 -0.915773 -0
    outer loop
      vertex 7.72042 6.65575 3.9
      vertex 7.26823 6.8541 0
      vertex 7.72042 6.65575 0
    endloop
  endfacet
  facet normal 0.245494 0.969398 -0
    outer loop
      vertex 6.77613 3.90512 1.14441e-05
      vertex 6.29746 4.02634 3.9
      vertex 6.77613 3.90512 3.9
    endloop
  endfacet
  facet normal 0.245494 0.969398 0
    outer loop
      vertex 6.29746 4.02634 3.9
      vertex 6.77613 3.90512 1.14441e-05
      vertex 6.29746 4.02634 1.14441e-05
    endloop
  endfacet
  facet normal -0.986363 -0.164586 0
    outer loop
      vertex 8.4 5.4 1.14441e-05
      vertex 8.31873 5.88705 3.9
      vertex 8.31873 5.88705 1.14441e-05
    endloop
  endfacet
  facet normal -0.986363 -0.164586 0
    outer loop
      vertex 8.31873 5.88705 3.9
      vertex 8.4 5.4 1.14441e-05
      vertex 8.4 5.4 3.9
    endloop
  endfacet
  facet normal 0.546942 -0.837171 0
    outer loop
      vertex 5.88408 6.50359 0
      vertex 6.29746 6.77366 3.9
      vertex 5.88408 6.50359 3.9
    endloop
  endfacet
  facet normal 0.546942 -0.837171 0
    outer loop
      vertex 6.29746 6.77366 3.9
      vertex 5.88408 6.50359 0
      vertex 6.29746 6.77366 0
    endloop
  endfacet
  facet normal 0.546942 0.837171 -0
    outer loop
      vertex 6.29746 4.02634 1.14441e-05
      vertex 5.88408 4.29641 3.9
      vertex 6.29746 4.02634 3.9
    endloop
  endfacet
  facet normal 0.546942 0.837171 0
    outer loop
      vertex 5.88408 4.29641 3.9
      vertex 6.29746 4.02634 1.14441e-05
      vertex 5.88408 4.29641 1.14441e-05
    endloop
  endfacet
  facet normal -0.677279 0.735726 0
    outer loop
      vertex 8.08371 4.47868 1.14441e-05
      vertex 7.72042 4.14425 3.9
      vertex 8.08371 4.47868 3.9
    endloop
  endfacet
  facet normal -0.677279 0.735726 0
    outer loop
      vertex 7.72042 4.14425 3.9
      vertex 8.08371 4.47868 1.14441e-05
      vertex 7.72042 4.14425 1.14441e-05
    endloop
  endfacet
  facet normal 1 -0 0
    outer loop
      vertex 5.42046 5.15311 3.9
      vertex 5.42046 5.64689 1.14441e-05
      vertex 5.42046 5.64689 3.9
    endloop
  endfacet
  facet normal 1 0 0
    outer loop
      vertex 5.42046 5.64689 1.14441e-05
      vertex 5.42046 5.15311 3.9
      vertex 5.42046 5.15311 1.14441e-05
    endloop
  endfacet
  facet normal -0.986363 0.164586 0
    outer loop
      vertex 8.31873 4.91295 1.14441e-05
      vertex 8.4 5.4 3.9
      vertex 8.4 5.4 1.14441e-05
    endloop
  endfacet
  facet normal -0.986363 0.164586 0
    outer loop
      vertex 8.4 5.4 3.9
      vertex 8.31873 4.91295 1.14441e-05
      vertex 8.31873 4.91295 3.9
    endloop
  endfacet
  facet normal -0.879473 -0.475948 -0
    outer loop
      vertex 8.2576 6 1.14441e-05
      vertex 8.08371 6.32132 0
      vertex 8.2576 6 0
    endloop
  endfacet
  facet normal -0.879473 -0.475948 0
    outer loop
      vertex 8.08371 6.32132 0
      vertex 8.2576 6 1.14441e-05
      vertex 8.08371 6.32132 3.9
    endloop
  endfacet
  facet normal -0.879459 -0.475975 -0
    outer loop
      vertex 8.31873 5.88705 3.9
      vertex 8.2576 6 1.14441e-05
      vertex 8.31873 5.88705 1.14441e-05
    endloop
  endfacet
  facet normal -0.87947 -0.475955 7.35346e-07
    outer loop
      vertex 8.2576 6 1.14441e-05
      vertex 8.31873 5.88705 3.9
      vertex 8.08371 6.32132 3.9
    endloop
  endfacet
  facet normal -0.677279 -0.735726 0
    outer loop
      vertex 7.72042 6.65575 0
      vertex 8.08371 6.32132 3.9
      vertex 7.72042 6.65575 3.9
    endloop
  endfacet
  facet normal -0.677279 -0.735726 -0
    outer loop
      vertex 8.08371 6.32132 3.9
      vertex 7.72042 6.65575 0
      vertex 8.08371 6.32132 0
    endloop
  endfacet
  facet normal -0.401697 0.915773 0
    outer loop
      vertex 7.72042 4.14425 1.14441e-05
      vertex 7.26823 3.9459 3.9
      vertex 7.72042 4.14425 3.9
    endloop
  endfacet
  facet normal -0.401697 0.915773 0
    outer loop
      vertex 7.26823 3.9459 3.9
      vertex 7.72042 4.14425 1.14441e-05
      vertex 7.26823 3.9459 1.14441e-05
    endloop
  endfacet
  facet normal 0.945814 -0.324708 0
    outer loop
      vertex 5.58079 6.11392 3.9
      vertex 5.54168 6 1.14441e-05
      vertex 5.58079 6.11392 0
    endloop
  endfacet
  facet normal 0.945818 -0.324697 -3.89302e-07
    outer loop
      vertex 5.42046 5.64689 3.9
      vertex 5.54168 6 1.14441e-05
      vertex 5.58079 6.11392 3.9
    endloop
  endfacet
  facet normal 0.94582 -0.324693 0
    outer loop
      vertex 5.54168 6 1.14441e-05
      vertex 5.42046 5.64689 3.9
      vertex 5.42046 5.64689 1.14441e-05
    endloop
  endfacet
  facet normal 0.945814 -0.324708 0
    outer loop
      vertex 5.58079 6.11392 0
      vertex 5.54168 6 1.14441e-05
      vertex 5.54168 6 0
    endloop
  endfacet
  facet normal 0.945818 0.324697 0
    outer loop
      vertex 5.58079 4.68608 3.9
      vertex 5.42046 5.15311 1.14441e-05
      vertex 5.42046 5.15311 3.9
    endloop
  endfacet
  facet normal 0.945818 0.324697 0
    outer loop
      vertex 5.42046 5.15311 1.14441e-05
      vertex 5.58079 4.68608 3.9
      vertex 5.58079 4.68608 1.14441e-05
    endloop
  endfacet
  facet normal 0.789143 -0.61421 0
    outer loop
      vertex 5.58079 6.11392 3.9
      vertex 5.88408 6.50359 0
      vertex 5.88408 6.50359 3.9
    endloop
  endfacet
  facet normal 0.789143 -0.61421 0
    outer loop
      vertex 5.88408 6.50359 0
      vertex 5.58079 6.11392 3.9
      vertex 5.58079 6.11392 0
    endloop
  endfacet
  facet normal -0.0825862 -0.996584 0
    outer loop
      vertex 6.77613 6.89488 0
      vertex 7.26823 6.8541 3.9
      vertex 6.77613 6.89488 3.9
    endloop
  endfacet
  facet normal -0.0825862 -0.996584 -0
    outer loop
      vertex 7.26823 6.8541 3.9
      vertex 6.77613 6.89488 0
      vertex 7.26823 6.8541 0
    endloop
  endfacet
  facet normal -0.87947 0.475955 0
    outer loop
      vertex 8.08371 4.47868 1.14441e-05
      vertex 8.31873 4.91295 3.9
      vertex 8.31873 4.91295 1.14441e-05
    endloop
  endfacet
  facet normal -0.87947 0.475955 0
    outer loop
      vertex 8.31873 4.91295 3.9
      vertex 8.08371 4.47868 1.14441e-05
      vertex 8.08371 4.47868 3.9
    endloop
  endfacet
  facet normal -0.0825862 0.996584 0
    outer loop
      vertex 7.26823 3.9459 1.14441e-05
      vertex 6.77613 3.90512 3.9
      vertex 7.26823 3.9459 3.9
    endloop
  endfacet
  facet normal -0.0825862 0.996584 0
    outer loop
      vertex 6.77613 3.90512 3.9
      vertex 7.26823 3.9459 1.14441e-05
      vertex 6.77613 3.90512 1.14441e-05
    endloop
  endfacet
  facet normal 0.245494 -0.969398 0
    outer loop
      vertex 6.29746 6.77366 0
      vertex 6.77613 6.89488 3.9
      vertex 6.29746 6.77366 3.9
    endloop
  endfacet
  facet normal 0.245494 -0.969398 0
    outer loop
      vertex 6.77613 6.89488 3.9
      vertex 6.29746 6.77366 0
      vertex 6.77613 6.89488 0
    endloop
  endfacet
  facet normal 0.789143 0.61421 0
    outer loop
      vertex 5.88408 4.29641 3.9
      vertex 5.58079 4.68608 1.14441e-05
      vertex 5.58079 4.68608 3.9
    endloop
  endfacet
  facet normal 0.789143 0.61421 0
    outer loop
      vertex 5.58079 4.68608 1.14441e-05
      vertex 5.88408 4.29641 3.9
      vertex 5.88408 4.29641 1.14441e-05
    endloop
  endfacet
  facet normal 0.707107 0 -0.707107
    outer loop
      vertex 3.4 10 14.8
      vertex 1.5 8.8 12.9
      vertex 1.5 10 12.9
    endloop
  endfacet
  facet normal 0.707107 0 -0.707107
    outer loop
      vertex 3.4 6 14.8
      vertex 1.5 8.8 12.9
      vertex 3.4 10 14.8
    endloop
  endfacet
  facet normal 0.707107 -1.12149e-16 -0.707107
    outer loop
      vertex 2.4 6 13.8
      vertex 1.5 8.8 12.9
      vertex 3.4 6 14.8
    endloop
  endfacet
  facet normal 0.707107 -1.12149e-16 -0.707107
    outer loop
      vertex 1.5 8.8 12.9
      vertex 2.4 6 13.8
      vertex 0.5 8.8 11.9
    endloop
  endfacet
  facet normal 0.707107 0 -0.707107
    outer loop
      vertex 0.5 0 11.9
      vertex 2.4 6 13.8
      vertex 2.4 0 13.8
    endloop
  endfacet
  facet normal 0.707107 0 -0.707107
    outer loop
      vertex 2.4 6 13.8
      vertex 0.5 0 11.9
      vertex 0.5 8.8 11.9
    endloop
  endfacet
  facet normal 0 -1 0
    outer loop
      vertex 0.5 0 11.9
      vertex 1 0 13.8
      vertex 0.804916 0 13.7808
    endloop
  endfacet
  facet normal 0 -1 0
    outer loop
      vertex 0.5 0 11.9
      vertex 0.804916 0 13.7808
      vertex 0.61731 0 13.7239
    endloop
  endfacet
  facet normal 0 -1 0
    outer loop
      vertex 0.5 0 11.9
      vertex 0.61731 0 13.7239
      vertex 0.444427 0 13.6315
    endloop
  endfacet
  facet normal 0 -1 0
    outer loop
      vertex 0.5 0 11.9
      vertex 0.444427 0 13.6315
      vertex 0.292892 0 13.5071
    endloop
  endfacet
  facet normal 0 -1 0
    outer loop
      vertex 0.5 0 11.9
      vertex 0.292892 0 13.5071
      vertex 0.168533 0 13.3556
    endloop
  endfacet
  facet normal 0 -1 0
    outer loop
      vertex 0.5 0 11.9
      vertex 0.168533 0 13.3556
      vertex 0.0761261 0 13.1827
    endloop
  endfacet
  facet normal 0 -1 0
    outer loop
      vertex 0.5 0 11.9
      vertex 0.0761261 0 13.1827
      vertex 0.0192108 0 12.9951
    endloop
  endfacet
  facet normal 0 -1 0
    outer loop
      vertex 0.5 0 11.9
      vertex 0.0192108 0 12.9951
      vertex 0 0 12.8
    endloop
  endfacet
  facet normal 0 -1 -0
    outer loop
      vertex 1 0 13.8
      vertex 0.5 0 11.9
      vertex 2.4 0 13.8
    endloop
  endfacet
  facet normal 0 -1 0
    outer loop
      vertex 0 0 12.8
      vertex 0.5 0 4.9
      vertex 0.5 0 11.9
    endloop
  endfacet
  facet normal 0 -1 0
    outer loop
      vertex 0 0 1.00001
      vertex 3 0 4.9
      vertex 0.5 0 4.9
    endloop
  endfacet
  facet normal 0 -1 -0
    outer loop
      vertex 3 0 4.9
      vertex 1 0 1.14441e-05
      vertex 5.65 0 4.9
    endloop
  endfacet
  facet normal 0 -1 -0
    outer loop
      vertex 5.65 0 4.9
      vertex 1 0 1.14441e-05
      vertex 8.15 0 4.9
    endloop
  endfacet
  facet normal 0 -1 0
    outer loop
      vertex 12.8 0 1.14441e-05
      vertex 8.15 0 4.9
      vertex 1 0 1.14441e-05
    endloop
  endfacet
  facet normal 0 -1 0
    outer loop
      vertex 3 0 4.9
      vertex 0 0 1.00001
      vertex 1 0 1.14441e-05
    endloop
  endfacet
  facet normal 0 -1 0
    outer loop
      vertex 0 0 1.00001
      vertex 0.5 0 4.9
      vertex 0 0 12.8
    endloop
  endfacet
  facet normal 0 -1 0
    outer loop
      vertex 3 0 4.9
      vertex 5.65 0 5.9
      vertex 3 0 5.9
    endloop
  endfacet
  facet normal 0 -1 -0
    outer loop
      vertex 5.65 0 5.9
      vertex 3 0 4.9
      vertex 5.65 0 4.9
    endloop
  endfacet
  facet normal 0 -1 0
    outer loop
      vertex 8.15 0 4.9
      vertex 10.8 0 5.9
      vertex 8.15 0 5.9
    endloop
  endfacet
  facet normal 0 -1 -0
    outer loop
      vertex 10.8 0 5.9
      vertex 8.15 0 4.9
      vertex 10.8 0 4.9
    endloop
  endfacet
  facet normal 0 -1 0
    outer loop
      vertex 13.3 0 11.9
      vertex 12.8 0 13.8
      vertex 11.4 0 13.8
    endloop
  endfacet
  facet normal 0 -1 0
    outer loop
      vertex 12.8 0 13.8
      vertex 13.3 0 11.9
      vertex 12.9951 0 13.7808
    endloop
  endfacet
  facet normal 0 -1 0
    outer loop
      vertex 12.9951 0 13.7808
      vertex 13.3 0 11.9
      vertex 13.1827 0 13.7239
    endloop
  endfacet
  facet normal 0 -1 0
    outer loop
      vertex 13.1827 0 13.7239
      vertex 13.3 0 11.9
      vertex 13.3556 0 13.6315
    endloop
  endfacet
  facet normal 0 -1 -0
    outer loop
      vertex 13.3556 0 13.6315
      vertex 13.3 0 11.9
      vertex 13.5071 0 13.5071
    endloop
  endfacet
  facet normal 0 -1 -0
    outer loop
      vertex 13.5071 0 13.5071
      vertex 13.3 0 11.9
      vertex 13.6315 0 13.3556
    endloop
  endfacet
  facet normal 0 -1 -0
    outer loop
      vertex 13.6315 0 13.3556
      vertex 13.3 0 11.9
      vertex 13.7239 0 13.1827
    endloop
  endfacet
  facet normal 0 -1 -0
    outer loop
      vertex 13.7239 0 13.1827
      vertex 13.3 0 11.9
      vertex 13.7808 0 12.9951
    endloop
  endfacet
  facet normal 0 -1 -0
    outer loop
      vertex 13.7808 0 12.9951
      vertex 13.3 0 11.9
      vertex 13.8 0 12.8
    endloop
  endfacet
  facet normal 0 -1 0
    outer loop
      vertex 13.3 0 4.9
      vertex 13.8 0 12.8
      vertex 13.3 0 11.9
    endloop
  endfacet
  facet normal 0 -1 0
    outer loop
      vertex 13.3 0 4.9
      vertex 13.8 0 1.00001
      vertex 13.8 0 12.8
    endloop
  endfacet
  facet normal 0 -1 0
    outer loop
      vertex 8.15 0 4.9
      vertex 12.8 0 1.14441e-05
      vertex 10.8 0 4.9
    endloop
  endfacet
  facet normal 0 -1 0
    outer loop
      vertex 1 0 1.14441e-05
      vertex 0 0 1.00001
      vertex 0.0192108 0 0.804928
    endloop
  endfacet
  facet normal -0 -1 0
    outer loop
      vertex 13.8 0 1.00001
      vertex 10.8 0 4.9
      vertex 12.8 0 1.14441e-05
    endloop
  endfacet
  facet normal 0 -1 0
    outer loop
      vertex 1 0 1.14441e-05
      vertex 0.0192108 0 0.804928
      vertex 0.0761261 0 0.617321
    endloop
  endfacet
  facet normal 0 -1 0
    outer loop
      vertex 10.8 0 4.9
      vertex 13.8 0 1.00001
      vertex 13.3 0 4.9
    endloop
  endfacet
  facet normal 0 -1 0
    outer loop
      vertex 1 0 1.14441e-05
      vertex 0.0761261 0 0.617321
      vertex 0.168533 0 0.444439
    endloop
  endfacet
  facet normal 0 -1 0
    outer loop
      vertex 13.8 0 1.00001
      vertex 12.8 0 1.14441e-05
      vertex 13.7808 0 0.804928
    endloop
  endfacet
  facet normal 0 -1 0
    outer loop
      vertex 1 0 1.14441e-05
      vertex 0.168533 0 0.444439
      vertex 0.292892 0 0.292904
    endloop
  endfacet
  facet normal 0 -1 0
    outer loop
      vertex 13.7808 0 0.804928
      vertex 12.8 0 1.14441e-05
      vertex 13.7239 0 0.617321
    endloop
  endfacet
  facet normal 0 -1 0
    outer loop
      vertex 1 0 1.14441e-05
      vertex 0.292892 0 0.292904
      vertex 0.444427 0 0.168545
    endloop
  endfacet
  facet normal 0 -1 0
    outer loop
      vertex 13.7239 0 0.617321
      vertex 12.8 0 1.14441e-05
      vertex 13.6315 0 0.444439
    endloop
  endfacet
  facet normal 0 -1 0
    outer loop
      vertex 1 0 1.14441e-05
      vertex 0.444427 0 0.168545
      vertex 0.61731 0 0.0761375
    endloop
  endfacet
  facet normal 0 -1 0
    outer loop
      vertex 13.6315 0 0.444439
      vertex 12.8 0 1.14441e-05
      vertex 13.5071 0 0.292904
    endloop
  endfacet
  facet normal 0 -1 0
    outer loop
      vertex 1 0 1.14441e-05
      vertex 0.61731 0 0.0761375
      vertex 0.804916 0 0.0192223
    endloop
  endfacet
  facet normal 0 -1 0
    outer loop
      vertex 13.5071 0 0.292904
      vertex 12.8 0 1.14441e-05
      vertex 13.3556 0 0.168545
    endloop
  endfacet
  facet normal 0 -1 0
    outer loop
      vertex 13.3556 0 0.168545
      vertex 12.8 0 1.14441e-05
      vertex 13.1827 0 0.0761375
    endloop
  endfacet
  facet normal 0 -1 0
    outer loop
      vertex 13.1827 0 0.0761375
      vertex 12.8 0 1.14441e-05
      vertex 12.9951 0 0.0192223
    endloop
  endfacet
  facet normal -0.707107 0 -0.707107
    outer loop
      vertex 13.3 8.8 11.9
      vertex 11.4 6 13.8
      vertex 12.3 8.8 12.9
    endloop
  endfacet
  facet normal -0.707107 0 -0.707107
    outer loop
      vertex 13.3 0 11.9
      vertex 11.4 6 13.8
      vertex 13.3 8.8 11.9
    endloop
  endfacet
  facet normal -0.707107 -0 -0.707107
    outer loop
      vertex 11.4 6 13.8
      vertex 13.3 0 11.9
      vertex 11.4 0 13.8
    endloop
  endfacet
  facet normal -0.707107 0 -0.707107
    outer loop
      vertex 12.3 9 12.9
      vertex 10.4 10 14.8
      vertex 12.3 10 12.9
    endloop
  endfacet
  facet normal -0.707107 0 -0.707107
    outer loop
      vertex 12.3 8.8 12.9
      vertex 10.4 10 14.8
      vertex 12.3 9 12.9
    endloop
  endfacet
  facet normal -0.707107 0 -0.707107
    outer loop
      vertex 10.4 6 14.8
      vertex 12.3 8.8 12.9
      vertex 11.4 6 13.8
    endloop
  endfacet
  facet normal -0.707107 0 -0.707107
    outer loop
      vertex 12.3 8.8 12.9
      vertex 10.4 6 14.8
      vertex 10.4 10 14.8
    endloop
  endfacet
  facet normal 0.997135 -0.0756447 0
    outer loop
      vertex 17.4428 11.9803 13.8
      vertex 17.4439 11.9948 0
      vertex 17.4439 11.9948 13.8
    endloop
  endfacet
  facet normal 0.997135 -0.0756447 0
    outer loop
      vertex 17.4439 11.9948 0
      vertex 17.4428 11.9803 13.8
      vertex 17.4428 11.9803 0
    endloop
  endfacet
  facet normal 0 0 1
    outer loop
      vertex -7.0653 13.4246 13.8
      vertex -6.29607 13.6848 13.8
      vertex -6.65286 13.6674 13.8
    endloop
  endfacet
  facet normal 0 0 1
    outer loop
      vertex -7.31764 13.0178 13.8
      vertex -6.29607 13.6848 13.8
      vertex -7.0653 13.4246 13.8
    endloop
  endfacet
  facet normal 0 0 1
    outer loop
      vertex -6.29607 13.6848 13.8
      vertex -7.31764 13.0178 13.8
      vertex -6.43678 11.7338 13.8
    endloop
  endfacet
  facet normal 0 0 1
    outer loop
      vertex -6.43678 11.7338 13.8
      vertex -7.16069 12.1017 13.8
      vertex -6.78736 11.8022 13.8
    endloop
  endfacet
  facet normal -0 0 1
    outer loop
      vertex -7.35206 12.5405 13.8
      vertex -6.43678 11.7338 13.8
      vertex -7.31764 13.0178 13.8
    endloop
  endfacet
  facet normal 0 0 1
    outer loop
      vertex -6.43678 11.7338 13.8
      vertex -7.35206 12.5405 13.8
      vertex -7.16069 12.1017 13.8
    endloop
  endfacet
  facet normal -0 0 1
    outer loop
      vertex 19.2878 10 13.8
      vertex 19.3 7 13.8
      vertex 19.3 10 13.8
    endloop
  endfacet
  facet normal 0 0 1
    outer loop
      vertex 17.3 10 13.8
      vertex 19.2878 10 13.8
      vertex 19.2713 10.3377 13.8
    endloop
  endfacet
  facet normal 0 0 1
    outer loop
      vertex 17.3 10 13.8
      vertex 19.2713 10.3377 13.8
      vertex 19.1332 10.7997 13.8
    endloop
  endfacet
  facet normal 0 0 1
    outer loop
      vertex 17.3 10 13.8
      vertex 19.1332 10.7997 13.8
      vertex 18.8885 11.2151 13.8
    endloop
  endfacet
  facet normal 0 0 1
    outer loop
      vertex 17.3 10 13.8
      vertex 18.8885 11.2151 13.8
      vertex 18.5516 11.56 13.8
    endloop
  endfacet
  facet normal 0 0 1
    outer loop
      vertex 17.3 10 13.8
      vertex 18.5516 11.56 13.8
      vertex 18.1419 11.8142 13.8
    endloop
  endfacet
  facet normal 0 0 1
    outer loop
      vertex 17.3 10 13.8
      vertex 18.1419 11.8142 13.8
      vertex 17.6833 11.9629 13.8
    endloop
  endfacet
  facet normal 0 0 1
    outer loop
      vertex 17.3 10 13.8
      vertex 17.6833 11.9629 13.8
      vertex 17.4428 11.9803 13.8
    endloop
  endfacet
  facet normal 0 0 1
    outer loop
      vertex 19.2878 10 13.8
      vertex 17.3 10 13.8
      vertex 17.3 9 13.8
    endloop
  endfacet
  facet normal 0 0 1
    outer loop
      vertex 19.2878 10 13.8
      vertex 17.3 9 13.8
      vertex 19.3 7 13.8
    endloop
  endfacet
  facet normal 0 0 1
    outer loop
      vertex 14.8 7 13.8
      vertex 17.3 9 13.8
      vertex 14.8 9 13.8
    endloop
  endfacet
  facet normal 0 0 1
    outer loop
      vertex 17.3 9 13.8
      vertex 14.8 7 13.8
      vertex 19.3 7 13.8
    endloop
  endfacet
  facet normal 0 0 1
    outer loop
      vertex 17.4428 11.9803 13.8
      vertex 16.5057 11.6375 13.8
      vertex 17.3 10 13.8
    endloop
  endfacet
  facet normal 0 0 1
    outer loop
      vertex 17.4439 11.9948 13.8
      vertex 16.5057 11.6375 13.8
      vertex 17.4428 11.9803 13.8
    endloop
  endfacet
  facet normal 0 0 1
    outer loop
      vertex 17.4439 11.9948 13.8
      vertex 14.6904 11.7684 13.8
      vertex 16.5057 11.6375 13.8
    endloop
  endfacet
  facet normal 0 0 1
    outer loop
      vertex 14.6904 11.7684 13.8
      vertex 6.52797 10.7768 13.8
      vertex 13.6694 10.2618 13.8
    endloop
  endfacet
  facet normal 0 0 1
    outer loop
      vertex 6.52797 10.7768 13.8
      vertex 3.53574 10.9926 13.8
      vertex 6.44166 9.57994 13.8
    endloop
  endfacet
  facet normal 0 0 1
    outer loop
      vertex 14.6904 11.7684 13.8
      vertex 3.53574 10.9926 13.8
      vertex 6.52797 10.7768 13.8
    endloop
  endfacet
  facet normal 0 0 1
    outer loop
      vertex -6.2945 13.7067 13.8
      vertex 14.6904 11.7684 13.8
      vertex 17.4439 11.9948 13.8
    endloop
  endfacet
  facet normal 0 0 1
    outer loop
      vertex 14.6904 11.7684 13.8
      vertex -6.2945 13.7067 13.8
      vertex 3.53574 10.9926 13.8
    endloop
  endfacet
  facet normal -0 0 1
    outer loop
      vertex -4.05272 10.036 13.8
      vertex -3.05531 9.96404 13.8
      vertex -2.97232 10.447 13.8
    endloop
  endfacet
  facet normal 0 0 1
    outer loop
      vertex -2.79669 10.9046 13.8
      vertex -3.69065 11.3527 13.8
      vertex -2.97232 10.447 13.8
    endloop
  endfacet
  facet normal -0 0 1
    outer loop
      vertex -3.69065 11.3527 13.8
      vertex -2.79669 10.9046 13.8
      vertex -3.59347 11.5067 13.8
    endloop
  endfacet
  facet normal 0 0 1
    outer loop
      vertex -2.53517 11.3191 13.8
      vertex -3.59347 11.5067 13.8
      vertex -2.79669 10.9046 13.8
    endloop
  endfacet
  facet normal 0 0 1
    outer loop
      vertex -2.43626 11.4233 13.8
      vertex -3.59347 11.5067 13.8
      vertex -2.53517 11.3191 13.8
    endloop
  endfacet
  facet normal 0 0 1
    outer loop
      vertex 3.53574 10.9926 13.8
      vertex -6.2945 13.7067 13.8
      vertex -2.43626 11.4233 13.8
    endloop
  endfacet
  facet normal 0 0 1
    outer loop
      vertex -2.43626 11.4233 13.8
      vertex -6.2945 13.7067 13.8
      vertex -3.59347 11.5067 13.8
    endloop
  endfacet
  facet normal -0 0 1
    outer loop
      vertex -6.29607 13.6848 13.8
      vertex -3.59347 11.5067 13.8
      vertex -6.2945 13.7067 13.8
    endloop
  endfacet
  facet normal -0 0 1
    outer loop
      vertex -6.43678 11.7338 13.8
      vertex -3.59347 11.5067 13.8
      vertex -6.29607 13.6848 13.8
    endloop
  endfacet
  facet normal 0 0 1
    outer loop
      vertex -3.59347 11.5067 13.8
      vertex -6.43678 11.7338 13.8
      vertex -6.43835 11.7119 13.8
    endloop
  endfacet
  facet normal 0 0 1
    outer loop
      vertex 6.44166 9.57994 13.8
      vertex 3.53574 10.9926 13.8
      vertex 3.44943 9.79572 13.8
    endloop
  endfacet
  facet normal -0 0 1
    outer loop
      vertex -2.14781 8.64534 13.8
      vertex -1.4537 7.84334 13.8
      vertex -1.36861 9.02329 13.8
    endloop
  endfacet
  facet normal 0 0 1
    outer loop
      vertex -3.56282 7.99544 13.8
      vertex -2.14781 8.64534 13.8
      vertex -2.79905 8.69231 13.8
    endloop
  endfacet
  facet normal 0 0 1
    outer loop
      vertex -2.14781 8.64534 13.8
      vertex -3.56282 7.99544 13.8
      vertex -1.4537 7.84334 13.8
    endloop
  endfacet
  facet normal 0 0 1
    outer loop
      vertex -2.93432 8.99612 13.8
      vertex -3.56282 7.99544 13.8
      vertex -2.79905 8.69231 13.8
    endloop
  endfacet
  facet normal 0 0 1
    outer loop
      vertex -3.04248 9.47412 13.8
      vertex -3.56282 7.99544 13.8
      vertex -2.93432 8.99612 13.8
    endloop
  endfacet
  facet normal 0 0 1
    outer loop
      vertex -3.56282 7.99544 13.8
      vertex -3.04248 9.47412 13.8
      vertex -3.05531 9.96404 13.8
    endloop
  endfacet
  facet normal 0 0 1
    outer loop
      vertex -3.05531 9.96404 13.8
      vertex -3.88333 8.68088 13.8
      vertex -3.60426 8.05408 13.8
    endloop
  endfacet
  facet normal 0 0 1
    outer loop
      vertex -2.97232 10.447 13.8
      vertex -3.69065 11.3527 13.8
      vertex -3.93653 10.7122 13.8
    endloop
  endfacet
  facet normal 0 0 1
    outer loop
      vertex -3.05531 9.96404 13.8
      vertex -3.60426 8.05408 13.8
      vertex -3.56282 7.99544 13.8
    endloop
  endfacet
  facet normal 0 0 1
    outer loop
      vertex -4.05272 10.036 13.8
      vertex -2.97232 10.447 13.8
      vertex -3.93653 10.7122 13.8
    endloop
  endfacet
  facet normal 0 0 1
    outer loop
      vertex -3.05531 9.96404 13.8
      vertex -4.03476 9.35008 13.8
      vertex -3.88333 8.68088 13.8
    endloop
  endfacet
  facet normal 0 0 1
    outer loop
      vertex -3.05531 9.96404 13.8
      vertex -4.05272 10.036 13.8
      vertex -4.03476 9.35008 13.8
    endloop
  endfacet
  facet normal -0.99744 0.071506 0
    outer loop
      vertex -6.29607 13.6848 0
      vertex -6.2945 13.7067 13.8
      vertex -6.2945 13.7067 0
    endloop
  endfacet
  facet normal -0.99744 0.071506 0
    outer loop
      vertex -6.2945 13.7067 13.8
      vertex -6.29607 13.6848 0
      vertex -6.29607 13.6848 13.8
    endloop
  endfacet
  facet normal -0.99744 0.071506 0
    outer loop
      vertex -6.43835 11.7119 0
      vertex -6.43678 11.7338 13.8
      vertex -6.43678 11.7338 0
    endloop
  endfacet
  facet normal -0.99744 0.071506 0
    outer loop
      vertex -6.43678 11.7338 13.8
      vertex -6.43835 11.7119 0
      vertex -6.43835 11.7119 13.8
    endloop
  endfacet
  facet normal 0.0719284 0.99741 -0
    outer loop
      vertex 17.4439 11.9948 0
      vertex -6.2945 13.7067 13.8
      vertex 17.4439 11.9948 13.8
    endloop
  endfacet
  facet normal 0.0719284 0.99741 0
    outer loop
      vertex -6.2945 13.7067 13.8
      vertex 17.4439 11.9948 0
      vertex -6.2945 13.7067 0
    endloop
  endfacet
  facet normal -0.0719427 -0.997409 0
    outer loop
      vertex -6.43835 11.7119 0
      vertex -3.59347 11.5067 13.8
      vertex -6.43835 11.7119 13.8
    endloop
  endfacet
  facet normal -0.0719427 -0.997409 -0
    outer loop
      vertex -3.59347 11.5067 13.8
      vertex -6.43835 11.7119 0
      vertex -3.59347 11.5067 0
    endloop
  endfacet
  facet normal -0.0719276 -0.99741 0
    outer loop
      vertex 6.52797 10.7768 0
      vertex 13.6694 10.2618 13.8
      vertex 6.52797 10.7768 13.8
    endloop
  endfacet
  facet normal -0.0719276 -0.99741 -0
    outer loop
      vertex 13.6694 10.2618 13.8
      vertex 6.52797 10.7768 0
      vertex 13.6694 10.2618 0
    endloop
  endfacet
  facet normal -0.0719331 -0.997409 0
    outer loop
      vertex -2.43626 11.4233 0
      vertex 3.53574 10.9926 13.8
      vertex -2.43626 11.4233 13.8
    endloop
  endfacet
  facet normal -0.0719331 -0.997409 -0
    outer loop
      vertex 3.53574 10.9926 13.8
      vertex -2.43626 11.4233 0
      vertex 3.53574 10.9926 0
    endloop
  endfacet
  facet normal -0.99741 0.0719272 0
    outer loop
      vertex -7.35206 12.5405 0
      vertex -7.31764 13.0178 13.8
      vertex -7.31764 13.0178 0
    endloop
  endfacet
  facet normal -0.99741 0.0719272 0
    outer loop
      vertex -7.31764 13.0178 13.8
      vertex -7.35206 12.5405 0
      vertex -7.35206 12.5405 13.8
    endloop
  endfacet
  facet normal -0.916621 -0.399758 0
    outer loop
      vertex -7.16069 12.1017 0
      vertex -7.35206 12.5405 13.8
      vertex -7.35206 12.5405 0
    endloop
  endfacet
  facet normal -0.916621 -0.399758 0
    outer loop
      vertex -7.35206 12.5405 13.8
      vertex -7.16069 12.1017 0
      vertex -7.16069 12.1017 13.8
    endloop
  endfacet
  facet normal -0.507312 0.861762 0
    outer loop
      vertex -6.65286 13.6674 0
      vertex -7.0653 13.4246 13.8
      vertex -6.65286 13.6674 13.8
    endloop
  endfacet
  facet normal -0.507312 0.861762 0
    outer loop
      vertex -7.0653 13.4246 13.8
      vertex -6.65286 13.6674 0
      vertex -7.0653 13.4246 0
    endloop
  endfacet
  facet normal -0.62576 -0.780016 0
    outer loop
      vertex -7.16069 12.1017 0
      vertex -6.78736 11.8022 13.8
      vertex -7.16069 12.1017 13.8
    endloop
  endfacet
  facet normal -0.62576 -0.780016 -0
    outer loop
      vertex -6.78736 11.8022 13.8
      vertex -7.16069 12.1017 0
      vertex -6.78736 11.8022 0
    endloop
  endfacet
  facet normal -0.0487103 0.998813 0
    outer loop
      vertex -6.29607 13.6848 0
      vertex -6.65286 13.6674 13.8
      vertex -6.29607 13.6848 13.8
    endloop
  endfacet
  facet normal -0.0487103 0.998813 0
    outer loop
      vertex -6.65286 13.6674 13.8
      vertex -6.29607 13.6848 0
      vertex -6.65286 13.6674 0
    endloop
  endfacet
  facet normal -0.849787 0.527127 0
    outer loop
      vertex -7.31764 13.0178 0
      vertex -7.0653 13.4246 13.8
      vertex -7.0653 13.4246 0
    endloop
  endfacet
  facet normal -0.849787 0.527127 0
    outer loop
      vertex -7.0653 13.4246 13.8
      vertex -7.31764 13.0178 0
      vertex -7.31764 13.0178 13.8
    endloop
  endfacet
  facet normal -0.191495 -0.981494 0
    outer loop
      vertex -6.78736 11.8022 0
      vertex -6.43678 11.7338 13.8
      vertex -6.78736 11.8022 13.8
    endloop
  endfacet
  facet normal -0.191495 -0.981494 -0
    outer loop
      vertex -6.43678 11.7338 13.8
      vertex -6.78736 11.8022 0
      vertex -6.43678 11.7338 0
    endloop
  endfacet
  facet normal 0.527218 0.84973 -0
    outer loop
      vertex 18.5516 11.56 0
      vertex 18.1419 11.8142 13.8
      vertex 18.5516 11.56 13.8
    endloop
  endfacet
  facet normal 0.527218 0.84973 0
    outer loop
      vertex 18.1419 11.8142 13.8
      vertex 18.5516 11.56 0
      vertex 18.1419 11.8142 0
    endloop
  endfacet
  facet normal 0.958111 0.286396 0
    outer loop
      vertex 19.2713 10.3377 13.8
      vertex 19.1332 10.7997 0
      vertex 19.1332 10.7997 13.8
    endloop
  endfacet
  facet normal 0.958111 0.286396 0
    outer loop
      vertex 19.1332 10.7997 0
      vertex 19.2713 10.3377 13.8
      vertex 19.2713 10.3377 0
    endloop
  endfacet
  facet normal 0.998808 0.0488017 0
    outer loop
      vertex 19.2878 10 13.8
      vertex 19.2713 10.3377 0
      vertex 19.2713 10.3377 13.8
    endloop
  endfacet
  facet normal 0.998808 0.0488017 0
    outer loop
      vertex 19.2713 10.3377 0
      vertex 19.2878 10 13.8
      vertex 19.2878 10 0
    endloop
  endfacet
  facet normal 0.861619 0.507555 0
    outer loop
      vertex 19.1332 10.7997 13.8
      vertex 18.8885 11.2151 0
      vertex 18.8885 11.2151 13.8
    endloop
  endfacet
  facet normal 0.861619 0.507555 0
    outer loop
      vertex 18.8885 11.2151 0
      vertex 19.1332 10.7997 13.8
      vertex 19.1332 10.7997 0
    endloop
  endfacet
  facet normal 0.715354 0.698762 0
    outer loop
      vertex 18.8885 11.2151 13.8
      vertex 18.5516 11.56 0
      vertex 18.5516 11.56 13.8
    endloop
  endfacet
  facet normal 0.715354 0.698762 0
    outer loop
      vertex 18.5516 11.56 0
      vertex 18.8885 11.2151 13.8
      vertex 18.8885 11.2151 0
    endloop
  endfacet
  facet normal 0.0721607 0.997393 -0
    outer loop
      vertex 17.6833 11.9629 0
      vertex 17.4428 11.9803 13.8
      vertex 17.6833 11.9629 13.8
    endloop
  endfacet
  facet normal 0.0721607 0.997393 0
    outer loop
      vertex 17.4428 11.9803 13.8
      vertex 17.6833 11.9629 0
      vertex 17.4428 11.9803 0
    endloop
  endfacet
  facet normal 0.308439 0.951244 -0
    outer loop
      vertex 18.1419 11.8142 0
      vertex 17.6833 11.9629 13.8
      vertex 18.1419 11.8142 13.8
    endloop
  endfacet
  facet normal 0.308439 0.951244 0
    outer loop
      vertex 17.6833 11.9629 13.8
      vertex 18.1419 11.8142 0
      vertex 17.6833 11.9629 0
    endloop
  endfacet
  facet normal -0.0719225 -0.99741 0
    outer loop
      vertex 14.6904 11.7684 0
      vertex 16.5057 11.6375 13.8
      vertex 14.6904 11.7684 13.8
    endloop
  endfacet
  facet normal -0.0719225 -0.99741 -0
    outer loop
      vertex 16.5057 11.6375 13.8
      vertex 14.6904 11.7684 0
      vertex 16.5057 11.6375 0
    endloop
  endfacet
  facet normal -0.899736 -0.436434 0
    outer loop
      vertex 17.3 10 0
      vertex 16.5057 11.6375 13.8
      vertex 16.5057 11.6375 0
    endloop
  endfacet
  facet normal -0.899736 -0.436434 0
    outer loop
      vertex 16.5057 11.6375 13.8
      vertex 17.3 10 0
      vertex 17.3 10 13.8
    endloop
  endfacet
  facet normal 0.827817 -0.560999 0
    outer loop
      vertex 13.6694 10.2618 13.8
      vertex 14.6904 11.7684 0
      vertex 14.6904 11.7684 13.8
    endloop
  endfacet
  facet normal 0.827817 -0.560999 0
    outer loop
      vertex 14.6904 11.7684 0
      vertex 13.6694 10.2618 13.8
      vertex 13.6694 10.2618 0
    endloop
  endfacet
  facet normal -0.0719286 -0.99741 0
    outer loop
      vertex -3.56282 7.99544 0
      vertex -1.4537 7.84334 13.8
      vertex -3.56282 7.99544 13.8
    endloop
  endfacet
  facet normal -0.0719286 -0.99741 -0
    outer loop
      vertex -1.4537 7.84334 13.8
      vertex -3.56282 7.99544 0
      vertex -1.4537 7.84334 0
    endloop
  endfacet
  facet normal -0.933573 0.358387 0
    outer loop
      vertex -3.93653 10.7122 0
      vertex -3.69065 11.3527 13.8
      vertex -3.69065 11.3527 0
    endloop
  endfacet
  facet normal -0.933573 0.358387 0
    outer loop
      vertex -3.69065 11.3527 13.8
      vertex -3.93653 10.7122 0
      vertex -3.93653 10.7122 13.8
    endloop
  endfacet
  facet normal -0.816659 -0.577121 0
    outer loop
      vertex -3.56282 7.99544 0
      vertex -3.60426 8.05408 13.8
      vertex -3.60426 8.05408 0
    endloop
  endfacet
  facet normal -0.816659 -0.577121 0
    outer loop
      vertex -3.60426 8.05408 13.8
      vertex -3.56282 7.99544 0
      vertex -3.56282 7.99544 13.8
    endloop
  endfacet
  facet normal -0.999657 -0.0261748 0
    outer loop
      vertex -4.03476 9.35008 0
      vertex -4.05272 10.036 13.8
      vertex -4.05272 10.036 0
    endloop
  endfacet
  facet normal -0.999657 -0.0261748 0
    outer loop
      vertex -4.05272 10.036 13.8
      vertex -4.03476 9.35008 0
      vertex -4.03476 9.35008 13.8
    endloop
  endfacet
  facet normal -0.975341 -0.220705 0
    outer loop
      vertex -3.88333 8.68088 0
      vertex -4.03476 9.35008 13.8
      vertex -4.03476 9.35008 0
    endloop
  endfacet
  facet normal -0.975341 -0.220705 0
    outer loop
      vertex -4.03476 9.35008 13.8
      vertex -3.88333 8.68088 0
      vertex -3.88333 8.68088 13.8
    endloop
  endfacet
  facet normal -0.845695 0.533667 0
    outer loop
      vertex -3.69065 11.3527 0
      vertex -3.59347 11.5067 13.8
      vertex -3.59347 11.5067 0
    endloop
  endfacet
  facet normal -0.845695 0.533667 0
    outer loop
      vertex -3.59347 11.5067 13.8
      vertex -3.69065 11.3527 0
      vertex -3.69065 11.3527 13.8
    endloop
  endfacet
  facet normal -0.985557 0.169346 0
    outer loop
      vertex -4.05272 10.036 0
      vertex -3.93653 10.7122 13.8
      vertex -3.93653 10.7122 0
    endloop
  endfacet
  facet normal -0.985557 0.169346 0
    outer loop
      vertex -3.93653 10.7122 13.8
      vertex -4.05272 10.036 0
      vertex -4.05272 10.036 13.8
    endloop
  endfacet
  facet normal -0.913545 -0.406737 0
    outer loop
      vertex -3.60426 8.05408 0
      vertex -3.88333 8.68088 13.8
      vertex -3.88333 8.68088 0
    endloop
  endfacet
  facet normal -0.913545 -0.406737 0
    outer loop
      vertex -3.88333 8.68088 13.8
      vertex -3.60426 8.05408 0
      vertex -3.60426 8.05408 13.8
    endloop
  endfacet
  facet normal 0.91354 0.406749 0
    outer loop
      vertex -2.79905 8.69231 13.8
      vertex -2.93432 8.99612 0
      vertex -2.93432 8.99612 13.8
    endloop
  endfacet
  facet normal 0.91354 0.406749 0
    outer loop
      vertex -2.93432 8.99612 0
      vertex -2.79905 8.69231 13.8
      vertex -2.79905 8.69231 0
    endloop
  endfacet
  facet normal 0.975342 0.220697 0
    outer loop
      vertex -2.93432 8.99612 13.8
      vertex -3.04248 9.47412 0
      vertex -3.04248 9.47412 13.8
    endloop
  endfacet
  facet normal 0.975342 0.220697 0
    outer loop
      vertex -3.04248 9.47412 0
      vertex -2.93432 8.99612 13.8
      vertex -2.93432 8.99612 0
    endloop
  endfacet
  facet normal 0.985555 -0.169354 0
    outer loop
      vertex -3.05531 9.96404 13.8
      vertex -2.97232 10.447 0
      vertex -2.97232 10.447 13.8
    endloop
  endfacet
  facet normal 0.985555 -0.169354 0
    outer loop
      vertex -2.97232 10.447 0
      vertex -3.05531 9.96404 13.8
      vertex -3.05531 9.96404 0
    endloop
  endfacet
  facet normal 0.725277 -0.688457 0
    outer loop
      vertex -2.53517 11.3191 13.8
      vertex -2.43626 11.4233 0
      vertex -2.43626 11.4233 13.8
    endloop
  endfacet
  facet normal 0.725277 -0.688457 0
    outer loop
      vertex -2.43626 11.4233 0
      vertex -2.53517 11.3191 13.8
      vertex -2.53517 11.3191 0
    endloop
  endfacet
  facet normal 0.999657 0.026179 0
    outer loop
      vertex -3.04248 9.47412 13.8
      vertex -3.05531 9.96404 0
      vertex -3.05531 9.96404 13.8
    endloop
  endfacet
  facet normal 0.999657 0.026179 0
    outer loop
      vertex -3.05531 9.96404 0
      vertex -3.04248 9.47412 13.8
      vertex -3.04248 9.47412 0
    endloop
  endfacet
  facet normal 0.933598 -0.358321 0
    outer loop
      vertex -2.97232 10.447 13.8
      vertex -2.79669 10.9046 0
      vertex -2.79669 10.9046 13.8
    endloop
  endfacet
  facet normal 0.933598 -0.358321 0
    outer loop
      vertex -2.79669 10.9046 0
      vertex -2.97232 10.447 13.8
      vertex -2.97232 10.447 0
    endloop
  endfacet
  facet normal 0.845737 -0.5336 0
    outer loop
      vertex -2.79669 10.9046 13.8
      vertex -2.53517 11.3191 0
      vertex -2.53517 11.3191 13.8
    endloop
  endfacet
  facet normal 0.845737 -0.5336 0
    outer loop
      vertex -2.53517 11.3191 0
      vertex -2.79669 10.9046 13.8
      vertex -2.79669 10.9046 0
    endloop
  endfacet
  facet normal 0.99741 -0.0719264 0
    outer loop
      vertex -1.4537 7.84334 13.8
      vertex -1.36861 9.02329 0
      vertex -1.36861 9.02329 13.8
    endloop
  endfacet
  facet normal 0.99741 -0.0719264 0
    outer loop
      vertex -1.36861 9.02329 0
      vertex -1.4537 7.84334 13.8
      vertex -1.4537 7.84334 0
    endloop
  endfacet
  facet normal 0.0719371 0.997409 -0
    outer loop
      vertex -2.14781 8.64534 0
      vertex -2.79905 8.69231 13.8
      vertex -2.14781 8.64534 13.8
    endloop
  endfacet
  facet normal 0.0719371 0.997409 0
    outer loop
      vertex -2.79905 8.69231 13.8
      vertex -2.14781 8.64534 0
      vertex -2.79905 8.69231 0
    endloop
  endfacet
  facet normal -0.436419 0.899743 0
    outer loop
      vertex -1.36861 9.02329 0
      vertex -2.14781 8.64534 13.8
      vertex -1.36861 9.02329 13.8
    endloop
  endfacet
  facet normal -0.436419 0.899743 0
    outer loop
      vertex -2.14781 8.64534 13.8
      vertex -1.36861 9.02329 0
      vertex -2.14781 8.64534 0
    endloop
  endfacet
  facet normal 0.99741 -0.0719269 0
    outer loop
      vertex 6.44166 9.57994 13.8
      vertex 6.52797 10.7768 0
      vertex 6.52797 10.7768 13.8
    endloop
  endfacet
  facet normal 0.99741 -0.0719269 0
    outer loop
      vertex 6.52797 10.7768 0
      vertex 6.44166 9.57994 13.8
      vertex 6.44166 9.57994 0
    endloop
  endfacet
  facet normal -0.99741 0.0719257 0
    outer loop
      vertex 3.44943 9.79572 0
      vertex 3.53574 10.9926 13.8
      vertex 3.53574 10.9926 0
    endloop
  endfacet
  facet normal -0.99741 0.0719257 0
    outer loop
      vertex 3.53574 10.9926 13.8
      vertex 3.44943 9.79572 0
      vertex 3.44943 9.79572 13.8
    endloop
  endfacet
  facet normal -0.0719267 -0.99741 0
    outer loop
      vertex 3.44943 9.79572 0
      vertex 6.44166 9.57994 13.8
      vertex 3.44943 9.79572 13.8
    endloop
  endfacet
  facet normal -0.0719267 -0.99741 -0
    outer loop
      vertex 6.44166 9.57994 13.8
      vertex 3.44943 9.79572 0
      vertex 6.44166 9.57994 0
    endloop
  endfacet
  facet normal 1 0 0
    outer loop
      vertex 14.8 9 14.8
      vertex 14.8 7 13.8
      vertex 14.8 9 13.8
    endloop
  endfacet
  facet normal 1 -0 0
    outer loop
      vertex 14.8 6 14.8
      vertex 14.8 7 13.8
      vertex 14.8 9 14.8
    endloop
  endfacet
  facet normal 1 0 0
    outer loop
      vertex 14.8 6 0
      vertex 14.8 7 13.8
      vertex 14.8 6 14.8
    endloop
  endfacet
  facet normal 1 0 0
    outer loop
      vertex 14.8 7 13.8
      vertex 14.8 6 0
      vertex 14.8 7 0
    endloop
  endfacet
  facet normal 0 0 1
    outer loop
      vertex 3.4 10 14.8
      vertex -0.5 7.75 14.8
      vertex 3.4 6 14.8
    endloop
  endfacet
  facet normal 0 0 1
    outer loop
      vertex 3.4 10 14.8
      vertex -0.548037 8.23773 14.8
      vertex -0.5 7.75 14.8
    endloop
  endfacet
  facet normal 0 0 1
    outer loop
      vertex 3.4 10 14.8
      vertex -0.690301 8.70671 14.8
      vertex -0.548037 8.23773 14.8
    endloop
  endfacet
  facet normal -0 0 1
    outer loop
      vertex -1 10 14.8
      vertex -0.690301 8.70671 14.8
      vertex 3.4 10 14.8
    endloop
  endfacet
  facet normal 0 0 1
    outer loop
      vertex -0.690301 8.70671 14.8
      vertex -1 10 14.8
      vertex -0.921326 9.13893 14.8
    endloop
  endfacet
  facet normal 0 0 1
    outer loop
      vertex -0.921326 9.13893 14.8
      vertex -1 10 14.8
      vertex -1 9.23479 14.8
    endloop
  endfacet
  facet normal -0 0 1
    outer loop
      vertex -0.548037 7.26227 14.8
      vertex 3.4 6 14.8
      vertex -0.5 7.75 14.8
    endloop
  endfacet
  facet normal -0 0 1
    outer loop
      vertex -0.690301 6.79329 14.8
      vertex 3.4 6 14.8
      vertex -0.548037 7.26227 14.8
    endloop
  endfacet
  facet normal 0 0 1
    outer loop
      vertex -1 6 14.8
      vertex -0.690301 6.79329 14.8
      vertex -0.921326 6.36107 14.8
    endloop
  endfacet
  facet normal 0 0 1
    outer loop
      vertex -1 6 14.8
      vertex -0.921326 6.36107 14.8
      vertex -1 6.26521 14.8
    endloop
  endfacet
  facet normal 0 0 1
    outer loop
      vertex -0.690301 6.79329 14.8
      vertex -1 6 14.8
      vertex 3.4 6 14.8
    endloop
  endfacet
  facet normal 0 0 1
    outer loop
      vertex 12.3 10 14.8
      vertex 10.4 10 14.8
      vertex 12.3 9 14.8
    endloop
  endfacet
  facet normal -0 0 1
    outer loop
      vertex 12.3 9 14.8
      vertex 14.8 6 14.8
      vertex 14.8 9 14.8
    endloop
  endfacet
  facet normal 0 0 1
    outer loop
      vertex 10.4 6 14.8
      vertex 12.3 9 14.8
      vertex 10.4 10 14.8
    endloop
  endfacet
  facet normal 0 0 1
    outer loop
      vertex 12.3 9 14.8
      vertex 10.4 6 14.8
      vertex 14.8 6 14.8
    endloop
  endfacet
  facet normal -1 0 0
    outer loop
      vertex -1 9.25 0
      vertex -1 9.23479 0
      vertex -1 9.25 13.8
    endloop
  endfacet
  facet normal -1 0 0
    outer loop
      vertex -1 9.25 13.8
      vertex -1 10 14.8
      vertex -1 10 13.8
    endloop
  endfacet
  facet normal -1 0 0
    outer loop
      vertex -1 9.25 13.8
      vertex -1 9.23479 14.8
      vertex -1 10 14.8
    endloop
  endfacet
  facet normal -1 0 0
    outer loop
      vertex -1 9.23479 14.8
      vertex -1 9.25 13.8
      vertex -1 9.23479 0
    endloop
  endfacet
  facet normal -1 0 0
    outer loop
      vertex -1 6 0
      vertex -1 6.26521 14.8
      vertex -1 6.26521 0
    endloop
  endfacet
  facet normal -1 -0 0
    outer loop
      vertex -1 6.26521 14.8
      vertex -1 6 0
      vertex -1 6 14.8
    endloop
  endfacet
  facet normal 0 -1 0
    outer loop
      vertex -1 6 14.8
      vertex 1 6 13.8
      vertex 3.4 6 14.8
    endloop
  endfacet
  facet normal 0 -1 0
    outer loop
      vertex -1 6 14.8
      vertex 0.804916 6 13.7808
      vertex 1 6 13.8
    endloop
  endfacet
  facet normal 0 -1 0
    outer loop
      vertex -1 6 14.8
      vertex 0.61731 6 13.7239
      vertex 0.804916 6 13.7808
    endloop
  endfacet
  facet normal 0 -1 0
    outer loop
      vertex -1 6 14.8
      vertex 0.444427 6 13.6315
      vertex 0.61731 6 13.7239
    endloop
  endfacet
  facet normal 0 -1 0
    outer loop
      vertex -1 6 14.8
      vertex 0.292892 6 13.5071
      vertex 0.444427 6 13.6315
    endloop
  endfacet
  facet normal 0 -1 0
    outer loop
      vertex -1 6 14.8
      vertex 0.168533 6 13.3556
      vertex 0.292892 6 13.5071
    endloop
  endfacet
  facet normal 0 -1 0
    outer loop
      vertex -1 6 14.8
      vertex 0.0761261 6 13.1827
      vertex 0.168533 6 13.3556
    endloop
  endfacet
  facet normal 0 -1 0
    outer loop
      vertex -1 6 14.8
      vertex 0.0192108 6 12.9951
      vertex 0.0761261 6 13.1827
    endloop
  endfacet
  facet normal 0 -1 0
    outer loop
      vertex -1 6 14.8
      vertex 0 6 12.8
      vertex 0.0192108 6 12.9951
    endloop
  endfacet
  facet normal 0 -1 0
    outer loop
      vertex -1 6 0
      vertex 0 6 12.8
      vertex -1 6 14.8
    endloop
  endfacet
  facet normal 0 -1 -0
    outer loop
      vertex 0 6 12.8
      vertex -1 6 0
      vertex 0 6 1.00001
    endloop
  endfacet
  facet normal 0 -1 0
    outer loop
      vertex -1 6 0
      vertex 0.0192108 6 0.804928
      vertex 0 6 1.00001
    endloop
  endfacet
  facet normal 0 -1 0
    outer loop
      vertex -1 6 0
      vertex 0.0761261 6 0.617321
      vertex 0.0192108 6 0.804928
    endloop
  endfacet
  facet normal 0 -1 0
    outer loop
      vertex -1 6 0
      vertex 0.168533 6 0.444439
      vertex 0.0761261 6 0.617321
    endloop
  endfacet
  facet normal 0 -1 0
    outer loop
      vertex -1 6 0
      vertex 0.292892 6 0.292904
      vertex 0.168533 6 0.444439
    endloop
  endfacet
  facet normal 0 -1 0
    outer loop
      vertex -1 6 0
      vertex 0.444427 6 0.168545
      vertex 0.292892 6 0.292904
    endloop
  endfacet
  facet normal 0 -1 0
    outer loop
      vertex -1 6 0
      vertex 0.61731 6 0.0761375
      vertex 0.444427 6 0.168545
    endloop
  endfacet
  facet normal 0 -1 0
    outer loop
      vertex -1 6 0
      vertex 0.804916 6 0.0192223
      vertex 0.61731 6 0.0761375
    endloop
  endfacet
  facet normal 0 -1 0
    outer loop
      vertex -1 6 0
      vertex 1 6 1.14441e-05
      vertex 0.804916 6 0.0192223
    endloop
  endfacet
  facet normal 0 -1 0
    outer loop
      vertex 5.54168 6 0
      vertex 1 6 1.14441e-05
      vertex -1 6 0
    endloop
  endfacet
  facet normal 0 -1 0
    outer loop
      vertex 1 6 1.14441e-05
      vertex 5.54168 6 0
      vertex 5.54168 6 1.14441e-05
    endloop
  endfacet
  facet normal 0 -1 0
    outer loop
      vertex 3.4 6 14.8
      vertex 1 6 13.8
      vertex 2.4 6 13.8
    endloop
  endfacet
  facet normal 0 -1 0
    outer loop
      vertex 8.2576 6 1.14441e-05
      vertex 8.2576 6 0
      vertex 12.8 6 1.14441e-05
    endloop
  endfacet
  facet normal 0 -1 0
    outer loop
      vertex 12.8 6 13.8
      vertex 10.4 6 14.8
      vertex 11.4 6 13.8
    endloop
  endfacet
  facet normal 0 -1 0
    outer loop
      vertex 10.4 6 14.8
      vertex 12.8 6 13.8
      vertex 14.8 6 14.8
    endloop
  endfacet
  facet normal 0 -1 0
    outer loop
      vertex 12.9951 6 13.7808
      vertex 14.8 6 14.8
      vertex 12.8 6 13.8
    endloop
  endfacet
  facet normal 0 -1 0
    outer loop
      vertex 13.1827 6 13.7239
      vertex 14.8 6 14.8
      vertex 12.9951 6 13.7808
    endloop
  endfacet
  facet normal 0 -1 0
    outer loop
      vertex 13.3556 6 13.6315
      vertex 14.8 6 14.8
      vertex 13.1827 6 13.7239
    endloop
  endfacet
  facet normal 0 -1 0
    outer loop
      vertex 13.5071 6 13.5071
      vertex 14.8 6 14.8
      vertex 13.3556 6 13.6315
    endloop
  endfacet
  facet normal 0 -1 0
    outer loop
      vertex 13.6315 6 13.3556
      vertex 14.8 6 14.8
      vertex 13.5071 6 13.5071
    endloop
  endfacet
  facet normal 0 -1 0
    outer loop
      vertex 13.7239 6 13.1827
      vertex 14.8 6 14.8
      vertex 13.6315 6 13.3556
    endloop
  endfacet
  facet normal 0 -1 0
    outer loop
      vertex 13.7808 6 12.9951
      vertex 14.8 6 14.8
      vertex 13.7239 6 13.1827
    endloop
  endfacet
  facet normal 0 -1 0
    outer loop
      vertex 13.8 6 12.8
      vertex 14.8 6 14.8
      vertex 13.7808 6 12.9951
    endloop
  endfacet
  facet normal 0 -1 0
    outer loop
      vertex 14.8 6 0
      vertex 13.8 6 12.8
      vertex 13.8 6 1.00001
    endloop
  endfacet
  facet normal 0 -1 0
    outer loop
      vertex 13.8 6 12.8
      vertex 14.8 6 0
      vertex 14.8 6 14.8
    endloop
  endfacet
  facet normal 0 -1 0
    outer loop
      vertex 13.7808 6 0.804928
      vertex 14.8 6 0
      vertex 13.8 6 1.00001
    endloop
  endfacet
  facet normal 0 -1 0
    outer loop
      vertex 13.7239 6 0.617321
      vertex 14.8 6 0
      vertex 13.7808 6 0.804928
    endloop
  endfacet
  facet normal 0 -1 0
    outer loop
      vertex 13.6315 6 0.444439
      vertex 14.8 6 0
      vertex 13.7239 6 0.617321
    endloop
  endfacet
  facet normal 0 -1 0
    outer loop
      vertex 13.5071 6 0.292904
      vertex 14.8 6 0
      vertex 13.6315 6 0.444439
    endloop
  endfacet
  facet normal 0 -1 0
    outer loop
      vertex 13.3556 6 0.168545
      vertex 14.8 6 0
      vertex 13.5071 6 0.292904
    endloop
  endfacet
  facet normal 0 -1 0
    outer loop
      vertex 13.1827 6 0.0761375
      vertex 14.8 6 0
      vertex 13.3556 6 0.168545
    endloop
  endfacet
  facet normal 0 -1 0
    outer loop
      vertex 12.9951 6 0.0192223
      vertex 14.8 6 0
      vertex 13.1827 6 0.0761375
    endloop
  endfacet
  facet normal 0 -1 0
    outer loop
      vertex 12.8 6 1.14441e-05
      vertex 14.8 6 0
      vertex 12.9951 6 0.0192223
    endloop
  endfacet
  facet normal 0 -1 0
    outer loop
      vertex 14.8 6 0
      vertex 12.8 6 1.14441e-05
      vertex 8.2576 6 0
    endloop
  endfacet
  facet normal -0.995185 0.0980167 0
    outer loop
      vertex -0.548037 7.26227 0
      vertex -0.5 7.75 14.8
      vertex -0.5 7.75 0
    endloop
  endfacet
  facet normal -0.995185 0.0980167 0
    outer loop
      vertex -0.5 7.75 14.8
      vertex -0.548037 7.26227 0
      vertex -0.548037 7.26227 14.8
    endloop
  endfacet
  facet normal -0.881922 0.471395 0
    outer loop
      vertex -0.921326 6.36107 0
      vertex -0.690301 6.79329 14.8
      vertex -0.690301 6.79329 0
    endloop
  endfacet
  facet normal -0.881922 0.471395 0
    outer loop
      vertex -0.690301 6.79329 14.8
      vertex -0.921326 6.36107 0
      vertex -0.921326 6.36107 14.8
    endloop
  endfacet
  facet normal -0.881922 -0.471395 0
    outer loop
      vertex -0.690301 8.70671 0
      vertex -0.921326 9.13893 14.8
      vertex -0.921326 9.13893 0
    endloop
  endfacet
  facet normal -0.881922 -0.471395 0
    outer loop
      vertex -0.921326 9.13893 14.8
      vertex -0.690301 8.70671 0
      vertex -0.690301 8.70671 14.8
    endloop
  endfacet
  facet normal -0.772996 -0.634411 0
    outer loop
      vertex -0.921326 9.13893 0
      vertex -1 9.23479 14.8
      vertex -1 9.23479 0
    endloop
  endfacet
  facet normal -0.772996 -0.634411 0
    outer loop
      vertex -1 9.23479 14.8
      vertex -0.921326 9.13893 0
      vertex -0.921326 9.13893 14.8
    endloop
  endfacet
  facet normal -0.995185 -0.0980167 0
    outer loop
      vertex -0.5 7.75 0
      vertex -0.548037 8.23773 14.8
      vertex -0.548037 8.23773 0
    endloop
  endfacet
  facet normal -0.995185 -0.0980167 0
    outer loop
      vertex -0.548037 8.23773 14.8
      vertex -0.5 7.75 0
      vertex -0.5 7.75 14.8
    endloop
  endfacet
  facet normal -0.95694 -0.290286 0
    outer loop
      vertex -0.548037 8.23773 0
      vertex -0.690301 8.70671 14.8
      vertex -0.690301 8.70671 0
    endloop
  endfacet
  facet normal -0.95694 -0.290286 0
    outer loop
      vertex -0.690301 8.70671 14.8
      vertex -0.548037 8.23773 0
      vertex -0.548037 8.23773 14.8
    endloop
  endfacet
  facet normal -0.772996 0.634411 0
    outer loop
      vertex -1 6.26521 0
      vertex -0.921326 6.36107 14.8
      vertex -0.921326 6.36107 0
    endloop
  endfacet
  facet normal -0.772996 0.634411 0
    outer loop
      vertex -0.921326 6.36107 14.8
      vertex -1 6.26521 0
      vertex -1 6.26521 14.8
    endloop
  endfacet
  facet normal -0.95694 0.290286 0
    outer loop
      vertex -0.690301 6.79329 0
      vertex -0.548037 7.26227 14.8
      vertex -0.548037 7.26227 0
    endloop
  endfacet
  facet normal -0.95694 0.290286 0
    outer loop
      vertex -0.548037 7.26227 14.8
      vertex -0.690301 6.79329 0
      vertex -0.690301 6.79329 14.8
    endloop
  endfacet
  facet normal 0.290248 0 0.956951
    outer loop
      vertex 12.9951 6 13.7808
      vertex 13.1827 0 13.7239
      vertex 13.1827 6 13.7239
    endloop
  endfacet
  facet normal 0.290248 0 0.956951
    outer loop
      vertex 13.1827 0 13.7239
      vertex 12.9951 6 13.7808
      vertex 12.9951 0 13.7808
    endloop
  endfacet
  facet normal 0.097938 0 0.995193
    outer loop
      vertex 12.8 6 13.8
      vertex 12.9951 0 13.7808
      vertex 12.9951 6 13.7808
    endloop
  endfacet
  facet normal 0.097938 0 0.995193
    outer loop
      vertex 12.9951 0 13.7808
      vertex 12.8 6 13.8
      vertex 12.8 0 13.8
    endloop
  endfacet
  facet normal 0.634473 0 -0.772945
    outer loop
      vertex 13.3556 0 0.168545
      vertex 13.5071 6 0.292904
      vertex 13.5071 0 0.292904
    endloop
  endfacet
  facet normal 0.634473 0 -0.772945
    outer loop
      vertex 13.5071 6 0.292904
      vertex 13.3556 0 0.168545
      vertex 13.3556 6 0.168545
    endloop
  endfacet
  facet normal -0 0 1
    outer loop
      vertex 11.4 6 13.8
      vertex 12.8 0 13.8
      vertex 12.8 6 13.8
    endloop
  endfacet
  facet normal 0 0 1
    outer loop
      vertex 12.8 0 13.8
      vertex 11.4 6 13.8
      vertex 11.4 0 13.8
    endloop
  endfacet
  facet normal -0 0 1
    outer loop
      vertex 1 6 13.8
      vertex 2.4 0 13.8
      vertex 2.4 6 13.8
    endloop
  endfacet
  facet normal 0 0 1
    outer loop
      vertex 2.4 0 13.8
      vertex 1 6 13.8
      vertex 1 0 13.8
    endloop
  endfacet
  facet normal -0.881922 0 -0.471395
    outer loop
      vertex 0.168533 0 0.444439
      vertex 0.0761261 6 0.617321
      vertex 0.168533 6 0.444439
    endloop
  endfacet
  facet normal -0.881922 -0 -0.471395
    outer loop
      vertex 0.0761261 6 0.617321
      vertex 0.168533 0 0.444439
      vertex 0.0761261 0 0.617321
    endloop
  endfacet
  facet normal -0.290311 0 -0.956932
    outer loop
      vertex 0.61731 0 0.0761375
      vertex 0.804916 6 0.0192223
      vertex 0.804916 0 0.0192223
    endloop
  endfacet
  facet normal -0.290311 0 -0.956932
    outer loop
      vertex 0.804916 6 0.0192223
      vertex 0.61731 0 0.0761375
      vertex 0.61731 6 0.0761375
    endloop
  endfacet
  facet normal 0.956954 0 -0.290238
    outer loop
      vertex 13.7808 0 0.804928
      vertex 13.7239 6 0.617321
      vertex 13.7808 6 0.804928
    endloop
  endfacet
  facet normal 0.956954 0 -0.290238
    outer loop
      vertex 13.7239 6 0.617321
      vertex 13.7808 0 0.804928
      vertex 13.7239 0 0.617321
    endloop
  endfacet
  facet normal -0.881943 0 0.471357
    outer loop
      vertex 0.0761261 0 13.1827
      vertex 0.168533 6 13.3556
      vertex 0.0761261 6 13.1827
    endloop
  endfacet
  facet normal -0.881943 0 0.471357
    outer loop
      vertex 0.168533 6 13.3556
      vertex 0.0761261 0 13.1827
      vertex 0.168533 0 13.3556
    endloop
  endfacet
  facet normal -0.0980008 0 -0.995186
    outer loop
      vertex 0.804916 0 0.0192223
      vertex 1 6 1.14441e-05
      vertex 1 0 1.14441e-05
    endloop
  endfacet
  facet normal -0.0980008 0 -0.995186
    outer loop
      vertex 1 6 1.14441e-05
      vertex 0.804916 0 0.0192223
      vertex 0.804916 6 0.0192223
    endloop
  endfacet
  facet normal 0.634598 0 0.772842
    outer loop
      vertex 13.3556 6 13.6315
      vertex 13.5071 0 13.5071
      vertex 13.5071 6 13.5071
    endloop
  endfacet
  facet normal 0.634598 0 0.772842
    outer loop
      vertex 13.5071 0 13.5071
      vertex 13.3556 6 13.6315
      vertex 13.3556 0 13.6315
    endloop
  endfacet
  facet normal 0.471359 0 -0.881941
    outer loop
      vertex 13.1827 0 0.0761375
      vertex 13.3556 6 0.168545
      vertex 13.3556 0 0.168545
    endloop
  endfacet
  facet normal 0.471359 0 -0.881941
    outer loop
      vertex 13.3556 6 0.168545
      vertex 13.1827 0 0.0761375
      vertex 13.1827 6 0.0761375
    endloop
  endfacet
  facet normal -0.772945 0 0.634473
    outer loop
      vertex 0.168533 0 13.3556
      vertex 0.292892 6 13.5071
      vertex 0.168533 6 13.3556
    endloop
  endfacet
  facet normal -0.772945 0 0.634473
    outer loop
      vertex 0.292892 6 13.5071
      vertex 0.168533 0 13.3556
      vertex 0.292892 0 13.5071
    endloop
  endfacet
  facet normal 0 0 -1
    outer loop
      vertex 8.08371 4.47868 1.14441e-05
      vertex 12.8 6 1.14441e-05
      vertex 12.8 0 1.14441e-05
    endloop
  endfacet
  facet normal 0 0 -1
    outer loop
      vertex 12.8 6 1.14441e-05
      vertex 8.31873 4.91295 1.14441e-05
      vertex 8.4 5.4 1.14441e-05
    endloop
  endfacet
  facet normal 0 0 -1
    outer loop
      vertex 12.8 6 1.14441e-05
      vertex 8.08371 4.47868 1.14441e-05
      vertex 8.31873 4.91295 1.14441e-05
    endloop
  endfacet
  facet normal 0 0 -1
    outer loop
      vertex 12.8 0 1.14441e-05
      vertex 7.72042 4.14425 1.14441e-05
      vertex 8.08371 4.47868 1.14441e-05
    endloop
  endfacet
  facet normal 0 0 -1
    outer loop
      vertex 12.8 0 1.14441e-05
      vertex 7.26823 3.9459 1.14441e-05
      vertex 7.72042 4.14425 1.14441e-05
    endloop
  endfacet
  facet normal 0 0 -1
    outer loop
      vertex 12.8 0 1.14441e-05
      vertex 6.77613 3.90512 1.14441e-05
      vertex 7.26823 3.9459 1.14441e-05
    endloop
  endfacet
  facet normal 0 0 -1
    outer loop
      vertex 1 0 1.14441e-05
      vertex 6.77613 3.90512 1.14441e-05
      vertex 12.8 0 1.14441e-05
    endloop
  endfacet
  facet normal 0 0 -1
    outer loop
      vertex 5.58079 4.68608 1.14441e-05
      vertex 1 6 1.14441e-05
      vertex 5.42046 5.15311 1.14441e-05
    endloop
  endfacet
  facet normal 0 0 -1
    outer loop
      vertex 1 6 1.14441e-05
      vertex 5.58079 4.68608 1.14441e-05
      vertex 1 0 1.14441e-05
    endloop
  endfacet
  facet normal -0 0 -1
    outer loop
      vertex 5.88408 4.29641 1.14441e-05
      vertex 1 0 1.14441e-05
      vertex 5.58079 4.68608 1.14441e-05
    endloop
  endfacet
  facet normal -0 0 -1
    outer loop
      vertex 6.29746 4.02634 1.14441e-05
      vertex 1 0 1.14441e-05
      vertex 5.88408 4.29641 1.14441e-05
    endloop
  endfacet
  facet normal -0 0 -1
    outer loop
      vertex 6.77613 3.90512 1.14441e-05
      vertex 1 0 1.14441e-05
      vertex 6.29746 4.02634 1.14441e-05
    endloop
  endfacet
  facet normal 0 0 -1
    outer loop
      vertex 8.31873 5.88705 1.14441e-05
      vertex 12.8 6 1.14441e-05
      vertex 8.4 5.4 1.14441e-05
    endloop
  endfacet
  facet normal -0 0 -1
    outer loop
      vertex 12.8 6 1.14441e-05
      vertex 8.31873 5.88705 1.14441e-05
      vertex 8.2576 6 1.14441e-05
    endloop
  endfacet
  facet normal 0 0 -1
    outer loop
      vertex 5.42046 5.15311 1.14441e-05
      vertex 1 6 1.14441e-05
      vertex 5.42046 5.64689 1.14441e-05
    endloop
  endfacet
  facet normal 0 0 -1
    outer loop
      vertex 5.42046 5.64689 1.14441e-05
      vertex 1 6 1.14441e-05
      vertex 5.54168 6 1.14441e-05
    endloop
  endfacet
  facet normal 0.881937 0 -0.471368
    outer loop
      vertex 13.7239 0 0.617321
      vertex 13.6315 6 0.444439
      vertex 13.7239 6 0.617321
    endloop
  endfacet
  facet normal 0.881937 0 -0.471368
    outer loop
      vertex 13.6315 6 0.444439
      vertex 13.7239 0 0.617321
      vertex 13.6315 0 0.444439
    endloop
  endfacet
  facet normal -1 0 0
    outer loop
      vertex 0 0 1.00001
      vertex 0 6 12.8
      vertex 0 6 1.00001
    endloop
  endfacet
  facet normal -1 -0 0
    outer loop
      vertex 0 6 12.8
      vertex 0 0 1.00001
      vertex 0 0 12.8
    endloop
  endfacet
  facet normal -0.0979459 0 0.995192
    outer loop
      vertex 0.804916 6 13.7808
      vertex 1 0 13.8
      vertex 1 6 13.8
    endloop
  endfacet
  facet normal -0.0979459 0 0.995192
    outer loop
      vertex 1 0 13.8
      vertex 0.804916 6 13.7808
      vertex 0.804916 0 13.7808
    endloop
  endfacet
  facet normal -0.471365 0 0.881938
    outer loop
      vertex 0.444427 6 13.6315
      vertex 0.61731 0 13.7239
      vertex 0.61731 6 13.7239
    endloop
  endfacet
  facet normal -0.471365 0 0.881938
    outer loop
      vertex 0.61731 0 13.7239
      vertex 0.444427 6 13.6315
      vertex 0.444427 0 13.6315
    endloop
  endfacet
  facet normal -0.63451 0 0.772914
    outer loop
      vertex 0.292892 6 13.5071
      vertex 0.444427 0 13.6315
      vertex 0.444427 6 13.6315
    endloop
  endfacet
  facet normal -0.63451 0 0.772914
    outer loop
      vertex 0.444427 0 13.6315
      vertex 0.292892 6 13.5071
      vertex 0.292892 0 13.5071
    endloop
  endfacet
  facet normal -0.29024 0 0.956954
    outer loop
      vertex 0.61731 6 13.7239
      vertex 0.804916 0 13.7808
      vertex 0.804916 6 13.7808
    endloop
  endfacet
  facet normal -0.29024 0 0.956954
    outer loop
      vertex 0.804916 0 13.7808
      vertex 0.61731 6 13.7239
      vertex 0.61731 0 13.7239
    endloop
  endfacet
  facet normal 0.0979928 0 -0.995187
    outer loop
      vertex 12.8 0 1.14441e-05
      vertex 12.9951 6 0.0192223
      vertex 12.9951 0 0.0192223
    endloop
  endfacet
  facet normal 0.0979928 0 -0.995187
    outer loop
      vertex 12.9951 6 0.0192223
      vertex 12.8 0 1.14441e-05
      vertex 12.8 6 1.14441e-05
    endloop
  endfacet
  facet normal -0.471395 0 -0.881922
    outer loop
      vertex 0.444427 0 0.168545
      vertex 0.61731 6 0.0761375
      vertex 0.61731 0 0.0761375
    endloop
  endfacet
  facet normal -0.471395 0 -0.881922
    outer loop
      vertex 0.61731 6 0.0761375
      vertex 0.444427 0 0.168545
      vertex 0.444427 6 0.168545
    endloop
  endfacet
  facet normal 0.772914 0 -0.63451
    outer loop
      vertex 13.6315 0 0.444439
      vertex 13.5071 6 0.292904
      vertex 13.6315 6 0.444439
    endloop
  endfacet
  facet normal 0.772914 0 -0.63451
    outer loop
      vertex 13.5071 6 0.292904
      vertex 13.6315 0 0.444439
      vertex 13.5071 0 0.292904
    endloop
  endfacet
  facet normal 1 -0 0
    outer loop
      vertex 13.8 0 12.8
      vertex 13.8 6 1.00001
      vertex 13.8 6 12.8
    endloop
  endfacet
  facet normal 1 0 0
    outer loop
      vertex 13.8 6 1.00001
      vertex 13.8 0 12.8
      vertex 13.8 0 1.00001
    endloop
  endfacet
  facet normal -0.956933 0 -0.29031
    outer loop
      vertex 0.0761261 0 0.617321
      vertex 0.0192108 6 0.804928
      vertex 0.0761261 6 0.617321
    endloop
  endfacet
  facet normal -0.956933 -0 -0.29031
    outer loop
      vertex 0.0192108 6 0.804928
      vertex 0.0761261 0 0.617321
      vertex 0.0192108 0 0.804928
    endloop
  endfacet
  facet normal 0.290319 0 -0.95693
    outer loop
      vertex 12.9951 0 0.0192223
      vertex 13.1827 6 0.0761375
      vertex 13.1827 0 0.0761375
    endloop
  endfacet
  facet normal 0.290319 0 -0.95693
    outer loop
      vertex 13.1827 6 0.0761375
      vertex 12.9951 0 0.0192223
      vertex 12.9951 6 0.0192223
    endloop
  endfacet
  facet normal -0.95693 0 0.29032
    outer loop
      vertex 0.0192108 0 12.9951
      vertex 0.0761261 6 13.1827
      vertex 0.0192108 6 12.9951
    endloop
  endfacet
  facet normal -0.95693 0 0.29032
    outer loop
      vertex 0.0761261 6 13.1827
      vertex 0.0192108 0 12.9951
      vertex 0.0761261 0 13.1827
    endloop
  endfacet
  facet normal 0.956951 -0 0.290248
    outer loop
      vertex 13.7239 0 13.1827
      vertex 13.7808 6 12.9951
      vertex 13.7239 6 13.1827
    endloop
  endfacet
  facet normal 0.956951 0 0.290248
    outer loop
      vertex 13.7808 6 12.9951
      vertex 13.7239 0 13.1827
      vertex 13.7808 0 12.9951
    endloop
  endfacet
  facet normal 0.995192 0 -0.0979469
    outer loop
      vertex 13.8 0 1.00001
      vertex 13.7808 6 0.804928
      vertex 13.8 6 1.00001
    endloop
  endfacet
  facet normal 0.995192 0 -0.0979469
    outer loop
      vertex 13.7808 6 0.804928
      vertex 13.8 0 1.00001
      vertex 13.7808 0 0.804928
    endloop
  endfacet
  facet normal -0.634385 0 -0.773017
    outer loop
      vertex 0.292892 0 0.292904
      vertex 0.444427 6 0.168545
      vertex 0.444427 0 0.168545
    endloop
  endfacet
  facet normal -0.634385 0 -0.773017
    outer loop
      vertex 0.444427 6 0.168545
      vertex 0.292892 0 0.292904
      vertex 0.292892 6 0.292904
    endloop
  endfacet
  facet normal -0.773017 0 -0.634385
    outer loop
      vertex 0.292892 0 0.292904
      vertex 0.168533 6 0.444439
      vertex 0.292892 6 0.292904
    endloop
  endfacet
  facet normal -0.773017 -0 -0.634385
    outer loop
      vertex 0.168533 6 0.444439
      vertex 0.292892 0 0.292904
      vertex 0.168533 0 0.444439
    endloop
  endfacet
  facet normal -0.995186 0 -0.0980015
    outer loop
      vertex 0.0192108 0 0.804928
      vertex 0 6 1.00001
      vertex 0.0192108 6 0.804928
    endloop
  endfacet
  facet normal -0.995186 -0 -0.0980015
    outer loop
      vertex 0 6 1.00001
      vertex 0.0192108 0 0.804928
      vertex 0 0 1.00001
    endloop
  endfacet
  facet normal 0.471329 0 0.881957
    outer loop
      vertex 13.1827 6 13.7239
      vertex 13.3556 0 13.6315
      vertex 13.3556 6 13.6315
    endloop
  endfacet
  facet normal 0.471329 0 0.881957
    outer loop
      vertex 13.3556 0 13.6315
      vertex 13.1827 6 13.7239
      vertex 13.1827 0 13.7239
    endloop
  endfacet
  facet normal 0.772842 -0 0.634598
    outer loop
      vertex 13.5071 0 13.5071
      vertex 13.6315 6 13.3556
      vertex 13.5071 6 13.5071
    endloop
  endfacet
  facet normal 0.772842 0 0.634598
    outer loop
      vertex 13.6315 6 13.3556
      vertex 13.5071 0 13.5071
      vertex 13.6315 0 13.3556
    endloop
  endfacet
  facet normal 0.881957 -0 0.471329
    outer loop
      vertex 13.6315 0 13.3556
      vertex 13.7239 6 13.1827
      vertex 13.6315 6 13.3556
    endloop
  endfacet
  facet normal 0.881957 0 0.471329
    outer loop
      vertex 13.7239 6 13.1827
      vertex 13.6315 0 13.3556
      vertex 13.7239 0 13.1827
    endloop
  endfacet
  facet normal -0.995187 0 0.0979925
    outer loop
      vertex 0 0 12.8
      vertex 0.0192108 6 12.9951
      vertex 0 6 12.8
    endloop
  endfacet
  facet normal -0.995187 0 0.0979925
    outer loop
      vertex 0.0192108 6 12.9951
      vertex 0 0 12.8
      vertex 0.0192108 0 12.9951
    endloop
  endfacet
  facet normal 0.995193 -0 0.097938
    outer loop
      vertex 13.7808 0 12.9951
      vertex 13.8 6 12.8
      vertex 13.7808 6 12.9951
    endloop
  endfacet
  facet normal 0.995193 0 0.097938
    outer loop
      vertex 13.8 6 12.8
      vertex 13.7808 0 12.9951
      vertex 13.8 0 12.8
    endloop
  endfacet
  facet normal 1 -0 0
    outer loop
      vertex 19.3 7 13.8
      vertex 19.3 10 0
      vertex 19.3 10 13.8
    endloop
  endfacet
  facet normal 1 0 0
    outer loop
      vertex 19.3 10 0
      vertex 19.3 7 13.8
      vertex 19.3 7 0
    endloop
  endfacet
  facet normal 0 -1 0
    outer loop
      vertex 14.8 7 0
      vertex 19.3 7 13.8
      vertex 14.8 7 13.8
    endloop
  endfacet
  facet normal 0 -1 -0
    outer loop
      vertex 19.3 7 13.8
      vertex 14.8 7 0
      vertex 19.3 7 0
    endloop
  endfacet
  facet normal -1 0 0
    outer loop
      vertex 17.3 9 0
      vertex 17.3 10 13.8
      vertex 17.3 10 0
    endloop
  endfacet
  facet normal -1 -0 0
    outer loop
      vertex 17.3 10 13.8
      vertex 17.3 9 0
      vertex 17.3 9 13.8
    endloop
  endfacet
  facet normal 0 1 -0
    outer loop
      vertex 17.3 9 0
      vertex 14.8 9 13.8
      vertex 17.3 9 13.8
    endloop
  endfacet
  facet normal 0 1 0
    outer loop
      vertex 14.8 9 13.8
      vertex 17.3 9 0
      vertex 12.3 9 12.9
    endloop
  endfacet
  facet normal 0 1 0
    outer loop
      vertex 12.3 9 12.9
      vertex 17.3 9 0
      vertex 12.3 9 0
    endloop
  endfacet
  facet normal 0 1 -0
    outer loop
      vertex 14.8 9 13.8
      vertex 12.3 9 14.8
      vertex 14.8 9 14.8
    endloop
  endfacet
  facet normal 0 1 0
    outer loop
      vertex 12.3 9 14.8
      vertex 14.8 9 13.8
      vertex 12.3 9 12.9
    endloop
  endfacet
endsolid OpenSCAD_Model
